<svg xmlns="http://www.w3.org/2000/svg" viewBox="436.67 131.68 478.02 474.7"><path d="M649 133c1.479 2.958 1.132 5.648 1.125 8.938l.008 3.777C650 149 650 149 649 152c-2.922 1.063-2.922 1.063-6.75 2l-2.064.518c-4.11 1.021-8.239 1.943-12.374 2.857-21.843 4.977-54.023 13.518-70.265 30.11-3.006 2.945-6.979 4.672-10.637 6.699-2.769 1.728-4.672 3.468-6.91 5.816a351.806 351.806 0 01-4.813 3.813c-4.953 4.02-9.538 8.315-14.062 12.812l-1.91 1.882c-3.891 3.917-7.074 7.956-10.215 12.493l-2.438 2.375c-3.438 3.522-5.917 7.492-8.562 11.625-4 6-4 6-5.295 7.846-4.179 6.055-7.523 12.372-10.767 18.966l-1.526 3.042c-4.974 10.019-9.41 20.105-12.412 30.896l-.749 2.657c-5.392 19.65-8.486 38.564-8.501 58.906l-.002 2.44c.016 12.34.653 24.15 3.252 36.247l.633 3.046A1020.978 1020.978 0 00467 429l-.048-1.746c-.474-20.284 1.09-39.797 7.048-59.254l.781-2.852c1.257-4.52 2.786-8.556 4.992-12.691 1.354-2.712 2.524-5.473 3.7-8.265 2.93-6.92 6.052-13.118 10.527-19.192l1.613-2.375c8.418-12.384 18.062-24.474 30.38-33.176 3.07-2.216 5.939-4.685 8.831-7.129 2.591-1.572 4.198-1.58 7.176-1.32 1.499 3.448 2.162 5.349 1.242 9.05l-1.367 3.262c-2.125 5.476-3.801 10.841-5.125 16.563l-.493 2.087c-7.385 32.562-.98 71.09 15.743 100.038a321.035 321.035 0 004.723 6.957C558 421 558 421 559.125 424.437L560 427l1.809.86c2.87 1.493 4.169 3.384 6.129 5.952 3.7 4.651 7.603 8.932 11.812 13.125l1.644 1.646c4.8 4.737 9.438 8.548 15.606 11.417v2l2.063.625c3.35 1.569 5.663 3.566 8.386 6.035 1.527 1.43 1.527 1.43 3.551 2.34v4c-13.398-.05-24.698-4.596-35.148-12.773a147.57 147.57 0 00-6.641-4.891l-1.959-1.364a830.79 830.79 0 00-3.834-2.647c-1.508-1.06-2.969-2.187-4.418-3.325v-2h-2a140.075 140.075 0 01-5-5l-2.402-2.367C537.363 428.233 528.887 413.847 522 398l-1.18-2.465c-6.643-14.65-7.742-32.234-8.383-48.098l-.13-3.056c-.105-2.46-.207-4.92-.307-7.381-.802 1.1-1.6 2.202-2.398 3.305l-1.35 1.859c-1.695 2.486-2.955 5.125-4.252 7.836l-1.367 2.07c-2.258 4.052-3.648 8.296-5.133 12.68l-.895 2.594a1047.83 1047.83 0 00-1.756 5.15c-.55 1.626-1.11 3.25-1.676 4.869-9.087 26.288-8.41 60.45 1.57 86.262 1.306 3.506 2.332 7.017 3.32 10.625 2.969 10.581 7.229 19.368 12.937 28.75l1.95 3.371c3.555 6.043 7.084 11.09 12.237 15.852 1.79 1.754 3.116 3.508 4.5 5.59 2.382 3.282 3.92 4.159 7.313 6.187 1.76 1.57 3.487 3.178 5.188 4.813 4.23 3.913 8.362 6.974 13.382 9.773 2.446 1.423 4.614 3.019 6.867 4.726 6.898 4.923 14.687 8.206 22.374 11.694 1.864.847 3.723 1.708 5.58 2.572 8.057 3.736 16.07 6.702 24.672 8.922l2.515.654c7.428 1.9 14.881 3.45 22.422 4.846 1.312.27 2.623.54 3.934.813 17.228 3.463 34.6 3.693 52.066 2.187l-2.16-1.758A3127.154 3127.154 0 01685 576c-.755-.615-1.51-1.23-2.29-1.863-1.608-1.334-3.165-2.73-4.71-4.137v-2l-1.688-.688C669.994 563.726 665.083 556.867 661 551l-.547-2.246L660 547l-3-1c-7.387-9.33-11.565-20.728-15-32l-1-3.21-1.063-3.54-.972-3.234c-2.75-10.644-3.259-21.194-3.153-32.141l.002-3.938c.045-9.514.045-9.514 1.186-12.937.315-2.31.603-4.623.875-6.938 1.086-8.669 2.857-16.937 6.125-25.062.453-1.558.89-3.12 1.313-4.688 2.51-8.49 6.864-15.946 11.687-23.312l1.742-2.777c7.332-11.44 16.453-21.404 26.946-30.036l2.886-2.394C691 358 691 358 693 358v-2a969.98 969.98 0 0114-8l3.004-1.691c5.654-3.012 11.158-5.022 17.308-6.684 8.67-2.36 15.97-6.086 23.688-10.625l3.027-1.613c7.163-4.049 11.326-9.18 15.977-15.79L772 309h2v-2h2l.332-1.652c.853-4.057 1.826-7.945 3.23-11.848 5.82-17.104 2.956-37.438-4.562-53.5-1.53-2.53-3.13-4.702-5-7-2.231 2.566-3.529 5.14-4.813 8.25-3.021 7.012-7.612 12.574-13.187 17.75l-1.563 1.578c-9.243 8.845-21.313 13.89-33.437 17.422-9.311 2.773-18.305 5.59-27 10l-2.039 1.034a909.049 909.049 0 00-6.836 3.528l-2.2 1.14c-3.995 2.115-7.466 4.356-10.925 7.298a588.043 588.043 0 01-4.063 3c-2.3 1.708-4.277 3.34-6.312 5.375L656 311h-2l-.188 1.688c-1.146 3.262-3.356 4.898-5.812 7.312a216.63 216.63 0 00-4.438 5.188l-2.183 2.605c-19.76 26.639-25.935 58.177-21.613 90.687 1.475 9.495 3.571 18.752 6.597 27.875.652 2.708.591 4.066-.363 6.645-3.823 0-5.981-.059-8.848-2.707a196.3 196.3 0 01-3.523-4.297c-1.953-2.393-4.172-4.137-6.629-5.996-3.408-3.007-5.011-5.94-7-10-1.804-2.444-3.554-4.603-5.824-6.621-2.997-3.277-4.942-6.926-7.051-10.817-.44-.803-.878-1.606-1.33-2.434-17.677-32.648-23.14-71.946-12.5-107.964C579.174 284.1 588.429 263.428 602 250c2.35-2.857 4.633-5.76 6.914-8.672C611 239 611 239 614 238c.674-1.33 1.339-2.664 2-4a161.532 161.532 0 015.313-6l1.435-1.578c2.226-2.412 4.397-4.538 6.97-6.594 2.788-2.233 4.329-4.864 6.282-7.828h2l.813-2.313c1.177-2.664 2.166-3.692 4.187-5.687 12.75-18.053 16.908-35.288 17.563-57.063l.13-4.068c.106-3.29.208-6.58.307-9.869 3.397-1.699 7.266-1.185 11.004-1.203l2.761-.017c1.941-.01 3.883-.016 5.824-.02 2.91-.01 5.82-.04 8.73-.072 17.233-.098 33.076 2.778 49.681 7.312l2.094.57c16.725 4.612 32.1 10.687 47.406 18.805 1.42.744 2.84 1.488 4.262 2.23 3.418 1.789 6.83 3.589 10.238 5.395v2l2.188.75c3.112 1.383 5.174 3.092 7.812 5.25 1.453.946 2.912 1.883 4.375 2.813 3.717 2.443 6.675 5.092 9.719 8.316 3.08 3.023 6.53 5.567 9.965 8.172L839 195v2l1.938.813C843 199 843 199 844 202c1.328.677 2.662 1.342 4 2 1.895 1.883 1.895 1.883 3.813 4.125l2.097 2.43L856 213c1.249 1.418 2.499 2.835 3.75 4.25a138.967 138.967 0 0111.54 15.223c1.867 2.759 3.842 5.42 5.835 8.09 2.742 3.735 5.015 7.36 6.957 11.558.97 1.984 2.089 3.779 3.293 5.629 4.957 7.818 8.876 15.71 10.887 24.777.64 2.53.64 2.53 2.129 4.735 2.171 3.695 3.366 7.545 4.672 11.613l.775 2.355A594.986 594.986 0 01908 308l1.086 3.445c1.154 4.488 1.838 8.97 2.477 13.555l.38 2.559c1.984 13.976 2.263 27.977 2.245 42.066l-.002 2.53C914.16 384.85 913.96 397.43 912 410l-.358 2.322C908.936 428.86 902.897 444.384 897 460l-1.07 2.879c-3.14 7.987-7.315 15.048-11.822 22.309-1.66 2.715-3.223 5.484-4.795 8.25-2.798 4.81-5.86 9.206-9.313 13.562l-1.508 1.996c-4.25 5.596-8.795 10.918-13.405 16.22-2.19 2.526-4.23 4.998-6.087 7.784h-2v2c-1.574 1.55-1.574 1.55-3.687 3.313-2.339 1.983-4.546 3.926-6.688 6.125-3.244 3.166-6.75 5.906-10.32 8.695-2.224 1.724-2.224 1.724-3.711 3.324-2.426 2.348-5.2 4.193-7.969 6.106-.565.398-1.13.797-1.71 1.208-2.535 1.758-4.879 3.215-7.767 4.319L803 569l-1 3a90.275 90.275 0 01-7 3.625c-4.58 2.187-9.11 4.397-13.527 6.898l-2.237 1.252a229.675 229.675 0 00-4.21 2.43c-5.048 2.808-9.279 3.576-15.026 2.795-5.042-1.642-11.029-4.473-14-9 .066-2.43.066-2.43 1-5 2.352-1.633 2.352-1.633 5.625-3.125l1.821-.857c2.177-1.023 4.366-2.02 6.554-3.018 2.911-1.349 5.818-2.706 8.72-4.074a623.706 623.706 0 015.93-2.755C782.292 558.06 788.1 554.334 794 550c1.6-1.11 3.204-2.215 4.813-3.313l2.082-1.425C803 544 803 544 805.699 543.02L808 542l1-3a132.038 132.038 0 015-3 162.655 162.655 0 003-3c1.099-.944 2.204-1.88 3.313-2.813 4.152-3.618 8.086-7.439 12-11.312l1.85-1.812c3.172-3.164 5.655-6.113 7.837-10.063 4.348-4.783 4.348-4.783 8-6 .372-1.323.697-2.66 1-4a102.123 102.123 0 013.188-5.187l1.921-2.97c1.117-1.679 2.247-3.35 3.407-5 4.637-6.625 8.064-13.766 11.585-21.023 1.118-2.263 2.327-4.473 3.524-6.695 3.345-6.678 5.447-13.876 7.695-20.979.592-1.87 1.2-3.735 1.809-5.6 12.879-40.202 12.815-84.333-1.035-124.237-1.129-3.415-1.93-6.78-2.625-10.301-.81-3.471-2.147-6.703-3.469-10.008l.484 2.734c3.161 22.35-.306 45.075-7.484 66.266l-1.234 3.727C863.177 373.077 853.602 388.42 842 400h-2l-.668 1.684c-1.762 3.064-4.017 5.02-6.644 7.379l-2.864 2.597c-2.537 2.103-4.977 3.703-7.824 5.34l-2.883 1.98c-8.913 6.068-18.108 10.29-28.14 14.201-2.018.807-2.018.807-4.057 1.874-2.509 1.235-5.009 1.764-7.732 2.383-3.45.827-6.71 1.648-9.938 3.125-3.039 1.344-5.947 2.095-9.168 2.859C751.555 445.79 743.646 450.68 736 455l-2.375 1.328c-16.752 10.224-28.244 27.328-33.328 46.071-4.535 19.021-1.328 38.209 8.527 54.972 1.16 1.706 1.16 1.706 2.82 3.227C713 562 713 562 713 564l1.688.625c3.282 1.952 5.019 4.317 7.312 7.375v2l2.25.75c2.98 1.355 4.53 2.882 6.75 5.25l3 2v2l2.188.813c7.175 3.03 7.175 3.03 9.187 6.687C746 594 746 594 745 597c-5.198 2.274-10.486 3.777-16 5.063l-1.941.486c-15.347 3.625-30.717 3.796-46.403 3.767-3.583-.003-7.165.02-10.748.045-12.663.035-24.551-.573-36.908-3.361-1.817-.348-3.635-.693-5.453-1.035-20.092-4.18-41.025-10.256-58.716-20.885-2.146-1.266-4.324-2.463-6.51-3.658-14.887-8.144-14.887-8.144-19.321-11.422v-2l-2.687-.75c-3.448-1.3-5.546-2.857-8.313-5.25l-3-2v-2l-2.375-.75c-3.064-1.46-3.242-2.3-4.625-5.25-1.333-.668-2.666-1.334-4-2a89.188 89.188 0 01-13.676-13.422c-1.45-1.775-1.45-1.775-3.761-4.015-7.163-7.163-13.632-15.064-19.5-23.313l-1.322-1.854a171.692 171.692 0 01-8.39-13.064 139.9 139.9 0 00-2.765-4.57C463.63 477.877 459.822 469.474 456 461l-1.375-3.023C433.13 408.622 430.574 345.699 449 295c.495-1.426.987-2.853 1.477-4.281C454.936 277.768 459.856 265.74 467 254c.76-1.292 1.518-2.585 2.273-3.879l2.352-3.996 1.09-1.874c2.439-4.101 5.18-7.629 8.285-11.251a791.206 791.206 0 003-5c10.984-16.044 25.726-33.173 42-44h2l.695-1.8c1.66-2.8 3.381-3.745 6.18-5.387 4.308-2.62 8.322-5.418 12.313-8.5C558.11 160 558.11 160 564 160v-2c3.263-1.62 6.537-3.218 9.813-4.813l2.755-1.369c5.57-2.696 10.948-4.641 16.947-6.145 3.315-.898 6.347-2.287 9.485-3.673 10.072-3.541 20.426-6.276 30.875-8.438l2.5-.532c4.463-.874 8.156-1.326 12.625-.03zm47 19l2.375 2.75c2.93 3.426 5.848 6.863 8.75 10.313l2.508 2.972c2.313 2.898 4.369 5.843 6.367 8.965l1.594 2.477c1.61 2.888 2.757 5.798 3.906 8.898 1.265 3.399 2.546 6.726 4.05 10.027 1.569 3.892 2.48 7.663 3.138 11.786l.385 2.39c1.7 12.041 1.181 24.295.927 36.422l2.316-1.39c1.872-1.123 3.746-2.243 5.621-3.36 7.909-5.81 11.754-13.165 13.72-22.715.759-5.6.952-11.506-.165-17.062-.53-2.66-.59-5.078-.554-7.786l.027-2.675L751 192c3.095-.464 5.261-.428 8.004 1.16 4.866 3.61 9.026 7.757 13.183 12.153 1.644 1.914 1.644 1.914 3.813 1.687l.688 1.625c2.054 3.717 4.798 6.882 7.818 9.86 4.729 4.796 7.558 10.398 10.057 16.577 1.612 3.956 3.118 7.485 5.59 10.997 3.306 5.264 2.974 11.23 2.98 17.308l.003 2.058c0 1.427-.001 2.854-.006 4.28-.005 2.157 0 4.314.007 6.47.017 19.938.017 19.938-4.887 28.325l-1.09 1.95A600.3 600.3 0 01794 312c-.96 1.728-1.92 3.457-2.875 5.188l-1.117 1.98A144.003 144.003 0 00787 325c9.722-1.904 17.926-4.87 25-12a292.573 292.573 0 013.75-2.5c5.234-3.86 8.018-8.963 11.25-14.5.893-1.356 1.788-2.71 2.687-4.063 8.94-14.525 10.312-32.472 7.188-49-2.337-9.758-6.187-18.656-11.875-26.937l-1.477-2.566c-1.723-2.753-3.693-4.99-5.898-7.371-2.513-2.733-4.972-5.445-7.25-8.375-4.05-4.584-8.911-7.521-14.242-10.461-2.848-1.638-5.605-3.411-8.383-5.165-4.912-3.07-9.895-5.629-15.215-7.917-2.395-1.082-4.59-2.303-6.848-3.645-12.517-7.09-28.451-11.159-42.503-14.035-3.823-.814-7.6-1.815-11.387-2.781-4.098-1.002-7.878-1.818-12.11-1.746L696 152zm-16 14l-.396 1.769c-.61 2.704-1.232 5.405-1.854 8.106l-.621 2.781c-4.5 19.361-14.545 36.015-28.129 50.344a337.05 337.05 0 00-3.25 3.813c-3.132 3.675-6.35 7.11-10.188 10.062-2.67 2.214-4.75 4.569-6.937 7.246C627 252 627 252 624.621 254.332c-2.761 2.81-5.184 5.784-7.558 8.918l-1.326 1.745c-21.732 28.795-30.614 59.899-26.112 96.005 1.545 8.215 4.571 16.145 7.375 24 2.33-2.33 2.385-3.196 2.86-6.375l.433-2.71.457-2.915c1.269-7.5 2.826-14.723 5.25-21.938l.718-2.162c1.39-3.963 3.084-7.496 5.247-11.116 2.246-3.871 4.104-7.963 6.035-11.999 1.97-4.024 4.143-7.303 7-10.785v-2l3-1c1.742-1.986 1.742-1.986 3.5-4.438 3.998-5.183 8.433-9.287 13.375-13.53L647 292v-2h2c1.336-1.33 2.67-2.664 4-4a89.67 89.67 0 014.813-2.938c2.989-1.738 5.86-3.485 8.625-5.562 7.866-5.73 16.42-9.352 25.562-12.5 1.818-.673 3.63-1.36 5.438-2.063l2.37-.91c3.412-1.599 5.718-3 7.317-6.464 4.712-19.186 5.648-44.837-4.875-62.5L700 190a619.797 619.797 0 01-3.563-5.563l-1.753-2.753a140.96 140.96 0 01-3.145-5.254c-1.64-2.588-3.43-4.587-5.601-6.743l-2.098-2.113c-1.69-1.79-1.69-1.79-3.84-1.574zm175 114c-.23.895-.461 1.79-.7 2.71-2.71 10.048-6.068 21.177-13.726 28.688-1.773 1.804-3.159 3.738-4.636 5.79-3.998 5.195-8.714 8.91-13.938 12.812l-2.031 1.656c-13.242 10.637-31.104 14.96-47.586 17.2-4.953.7-9.581 1.699-14.383 3.144-1.324.31-2.651.607-3.98.895-8.806 1.91-16.784 4.375-25.02 8.105-1.978.795-3.957 1.586-5.938 2.375C711.813 368.11 702.803 373.54 694 382a314.394 314.394 0 01-3.688 3c-4.052 3.435-7.396 7.568-10.312 12v2h-2c-20.159 35.354-26.252 72.617-15.688 112.438 3.136 9.486 8.979 18.43 14.688 26.562h1l-.016-2.244c-.02-3.398-.034-6.796-.046-10.193l-.026-3.53c-.026-9.394.479-18.068 3.15-27.095l.645-2.185c4.014-12.884 10.488-24.963 19.73-34.815l1.409-1.526A475.323 475.323 0 01707 452l2.414-2.555c2.99-2.828 6.152-5.16 9.524-7.507l1.802-1.276A634.128 634.128 0 01726 437l3.105-2.148c6.114-3.911 12.943-6.617 19.761-9.061 2.257-.837 4.475-1.748 6.7-2.666 5.355-2.15 10.795-3.875 16.309-5.562 12.618-3.957 23.819-8.638 35.125-15.563l2.848-1.586L812 399v-2l2.375-.937c2.548-.992 2.548-.992 4.625-2.063v-2l1.688-.687C832.239 384.756 839.838 369.326 846 358l2.027-3.156c2.835-4.954 3.888-10.454 5.16-15.969l.788-3.187c3.164-13.376 3.11-26.376 2.587-40l-.158-4.592A2971.47 2971.47 0 00856 280h-1z" fill="#DE4D41"/><path d="M550 440c2.875.25 2.875.25 6 1 1.188 2 1.188 2 2 4l3 1 1 5 2.25.438L567 452l2.25.375L571 453l1 3 3-1-.5-3.125A63.267 63.267 0 01574 442c3.208 2.72 6.394 5.439 9.48 8.297l2.582 2.39 2.41 2.262c2.695 2.186 5.381 3.612 8.528 5.051v2l2.063.625c3.35 1.569 5.663 3.566 8.386 6.035 1.527 1.43 1.527 1.43 3.551 2.34v4c-13.398-.05-24.698-4.596-35.148-12.773a147.57 147.57 0 00-6.641-4.891l-1.959-1.364a830.79 830.79 0 00-3.834-2.647c-1.508-1.06-2.969-2.187-4.418-3.325v-2h-2c-2.734-2.529-4.93-4.896-7-8z" fill="#B66557"/><path d="M469 297c1.616 4.029.272 6.785-1.125 10.75-2.39 7.132-4.103 14.324-5.625 21.688l-.637 3.047c-2.361 11.656-2.854 22.962-2.863 34.828l-.002 2.44c.016 12.338.642 24.154 3.252 36.247l.617 2.934a983.86 983.86 0 003.297 15.054c.896 3.994 1.582 7.95 2.086 12.012-2-3-2-3-3-6.125-.669-3-.669-3-3-3.875v-8h-3l.035-2.746c.05-6.849-.099-13.468-1.035-20.254h-2c-1-2.998-1.138-5.025-1.161-8.158l-.03-3.186-.012-3.437-.017-3.53c-.01-2.465-.016-4.93-.02-7.395-.01-3.779-.041-7.558-.072-11.337-.007-2.392-.012-4.784-.016-7.176l-.038-3.437.01-3.186-.011-2.805c.439-2.812 1.27-3.522 3.367-5.353.896-2.591.896-2.591 1.465-5.559l.736-3.36.737-3.518c4.988-23.489 4.988-23.489 8.062-26.563z" fill="#AD6C61"/><path d="M600 593l21 2 1 3c4.933 1.861 9.356 2.277 14.648 2.379l2.116.051c2.203.053 4.407.094 6.611.133 2.225.043 4.45.09 6.676.142 2.003.047 4.006.084 6.01.121C661 601 661 601 662 602l3.5.5c3.5.5 3.5.5 4.5 1.5 2.35.235 4.706.414 7.063.563l3.91.253L684 605l-1-3 3.042.048c3.736.054 7.473.088 11.21.117 1.615.015 3.23.035 4.844.061 2.326.037 4.652.054 6.978.067.718.015 1.436.03 2.176.047 4.491.001 7.095-.766 10.75-3.34 5.832-1.565 12.007-1.087 18-1-3.446 2.297-6.72 3.082-10.688 4l-2.01.5c-15.444 3.63-30.86 3.845-46.646 3.816-3.583-.003-7.165.02-10.748.045-12.659.036-24.56-.546-36.908-3.361-1.05-.215-2.1-.43-3.182-.65a367.814 367.814 0 01-8.193-1.788l-2.813-.639c-6.478-1.513-12.684-3.299-18.812-5.923v-1z" fill="#C04F45"/><path d="M872 500h2c-3.967 8.572-10.526 15.763-16.887 22.629-2.535 2.845-4.751 5.844-6.922 8.973L849 533h-2v2c-1.574 1.55-1.574 1.55-3.688 3.313-2.338 1.983-4.545 3.926-6.687 6.125-3.244 3.166-6.75 5.906-10.32 8.695-2.229 1.725-2.229 1.725-3.723 3.347-2.355 2.263-5.043 3.919-7.77 5.707l-3.292 2.168L809 566l-1-4c7.2-6 7.2-6 13-6l.313-2.375C822 551 822 551 825 549l1 2c3.08-2.773 4.688-5.063 6-9h2v-2c3-2 3-2 6-2v-4h3l.313-1.875C844 530 844 530 847 528l1.375-2.5c1.952-3.003 3.371-3.248 6.625-4.5 1.344-2.017 1.344-2.017 2-4h2l.375-1.938L860 513l2-1c1.134-2.017 1.134-2.017 2-4h3l1-3-2-1 2.438-.875c2.695-.858 2.695-.858 3.562-3.125z" fill="#C47974"/><path d="M672 190h2c-2.482 14.713-14.015 28.484-24 39a558.31 558.31 0 00-3.75 4.313A145.703 145.703 0 01638 242l-2.438 2.438L633 247l-1.578 1.648c-1.438 1.487-2.927 2.923-4.422 4.352h-2l-.742 1.672c-1.515 2.804-3.369 5.109-5.383 7.578l-2.195 2.703L615 267c0-2.84.403-5.237 1-8l3-1 1-5h2l.75-2.938L624 247c2.063-.75 2.063-.75 4-1l1-2h3v-2h3v-4h4v-5h3l1-3h3v-2h2v-2l3-1c5.445-4.851 8.291-9.97 10-17h2v-2h2v-5h2v-4l4-1 1-6z" fill="#C34B4A"/><path d="M779 437c-12.6 5.032-12.6 5.032-17.25 6.063-9.218 2.304-17.531 7.293-25.75 11.937l-2.375 1.328c-5.135 3.134-9.309 7.084-13.563 11.297l-1.722 1.706c-2.657 2.704-4.945 5.07-6.34 8.669h-2l3-9h2l.762-1.703c1.427-2.647 3.097-4.762 5.05-7.047l2.02-2.422C725 456 725 456 727.762 455.734L730 456v-3l5-1v-2h5v-2h4v-2c7.029-5.975 15.156-6.88 23.996-7.71 2.19-.237 2.19-.237 4.817-1.415 2.591-1.037 3.582-.65 6.187.125z" fill="#CA514C"/><path d="M910 325c2.704 4.057 2.72 7.523 3.125 12.313l.253 2.981C915.062 363.164 915.54 387.3 912 410l-.358 2.322c-2.192 13.4-5.888 27.354-11.642 39.678l-2 1c.643-4.451 1.707-8.589 3.063-12.875l1.097-3.492L903 434h2l1-14h2c.09-1.698.09-1.698.184-3.43l.254-4.445.119-2.262c.33-5.636.33-5.636 1.443-7.863.206-2.33.366-4.665.5-7 .389-6.778.389-6.778 1.5-9 .25-3.931.19-7.874.188-11.813l.001-3.54c-.049-8.226-.57-16.296-1.473-24.467-.772-7.093-.932-14.041-.716-21.18z" fill="#C88779"/><path d="M485 408h1l.06 2.136c.096 3.247.206 6.493.315 9.739l.094 3.36c.24 6.797.973 13.149 2.531 19.765l.965 4.45c.322 1.412.647 2.825.973 4.238l.474 2.142c1.076 4.653 2.662 8.784 4.588 13.17.771 2.404 1.501 4.82 2.188 7.25l1.042 3.64C500 481 500 481 500 484h-2l-1 2c-1.592-5.57-2.207-10.211-2-16h-3c-2.389-4.235-3.532-8.068-4.46-12.773-.535-2.514-.535-2.514-2.165-5.79-1.787-4.466-2.185-8.525-.865-13.268.661-2.926.601-5.686.588-8.685l-.01-3.789-.026-3.945-.013-3.992c-.012-3.253-.028-6.505-.049-9.758z" fill="#BF473A"/><path d="M550 440c2.875.25 2.875.25 6 1 1.188 2 1.188 2 2 4l3 1 1 5 2.25.438L567 452l2.25.375L571 453l1 3 3-1-1-3h2v-2c2.25-.375 2.25-.375 5 0a150.052 150.052 0 014 6c2.121.952 2.121.952 4 1l-2 7c-1.898-.23-3.794-.485-5.688-.75l-3.199-.422c-3.613-.961-5.327-2.368-8.113-4.828a1065.84 1065.84 0 00-8.77-6.195L559 450v-2h-2c-2.734-2.529-4.93-4.896-7-8z" fill="#C75343"/><path d="M480 234c1.125 3.75 1.125 3.75 0 6l-3 1c-.914 2.035-.914 2.035-1.5 4.438-1.171 4.343-1.171 4.343-4.5 6.562-1.205 2.552-1.205 2.552-2 5h-2l.188 2.75c-.205 3.542-.715 4.777-3.188 7.25h-2l-.621 2.152-.817 2.786-.808 2.777C459 277 459 277 458 278l-.438 3.5L457 285l-2 1c-3.293 6.539-5.201 13.717-7.125 20.75-.501 1.808-1.004 3.615-1.508 5.422l-.704 2.525A160.596 160.596 0 01443 323c-1.18-3.448-.806-5.588.219-9.05l.86-2.94c.303-.994.608-1.987.921-3.01l.86-2.826a848.91 848.91 0 012.64-8.361l.895-2.827A283.833 283.833 0 01455 278l1.14-2.984c2.988-7.448 6.692-14.172 10.86-21.016.771-1.304 1.54-2.608 2.309-3.914l2.378-4.024 1.117-1.9c2.16-3.62 4.483-6.935 7.196-10.162z" fill="#CEBAB8"/><path d="M809 539h2c-.125 2.25-.125 2.25-1 5-2.94 2.394-5.435 3.827-9.063 4.938-3.652 1.32-5.35 3.202-7.937 6.062-2.872 3.141-4.986 4.6-9 6-4.314 1.514-4.314 1.514-8 4-2 .04-4 .043-6 0v2c-1.793 1.438-1.793 1.438-4.188 3l-2.355 1.563C761 573 761 573 758.262 574.063c-2.424.715-2.424.715-3.262 2.937l-5-1c1.027-3.043 1.805-3.897 4.695-5.422l3.43-1.328c1.271-.513 2.54-1.03 3.809-1.55l2.015-.827c11.07-4.71 22.176-10.373 31.59-17.904a69.898 69.898 0 016.649-4.719l2.042-1.297C806 542 806 542 808 542l1-3z" fill="#C76E6B"/><path d="M532 354h2l.262 2.176c2.886 21.261 9.187 44.16 21.738 61.824l-1 2-3-1c-.688-2.063-.688-2.063-1-4h-2l-.586-1.934-.789-2.503-.773-2.497c-.66-2.244-.66-2.244-2.852-3.066-.594-2.649-.742-5.292-1-8h-2l-.332-1.906C538.841 384.59 538.841 384.59 533 376c-1.2-2.4-1.115-3.894-1.098-6.57l.01-2.715.025-2.84.014-2.863c.012-2.338.028-4.675.049-7.012z" fill="#D8A69D"/><path d="M486 385h1c.027 2.083.046 4.167.063 6.25l.035 3.516c-.08 2.644-.312 4.732-1.098 7.234l2 1c-.118 4.218-.243 8.435-.372 12.653-.044 1.434-.085 2.869-.125 4.303-.058 2.063-.122 4.126-.187 6.189l-.11 3.76C487 433 487 433 486 436a277.821 277.821 0 00-1 4h-2c-.025-5.05-.043-10.1-.055-15.149a2344.59 2344.59 0 00-.02-5.138c-.135-27.01-.135-27.01 3.075-34.713z" fill="#A9352C"/><path d="M753.5 190.5c5.31.759 8.537 4.048 12.5 7.5l-1 2-9-4v-3h-3l1 8h3v2l2 2-1.955.741c-2.204 1.049-2.204 1.049-2.635 3.135l-.133 2.265-.193 2.496-.146 2.613c-.368 5.954-.776 10.505-3.938 15.75l-2-1 .656-2.203c2.234-8.068 3.512-16.003 1.836-24.317-.522-2.633-.625-5.048-.617-7.73l-.008-2.64c.194-3.079.59-3.001 3.633-3.61z" fill="#C07E7A"/><path d="M618 418h2c.105.548.21 1.097.32 1.661.493 2.552.992 5.102 1.492 7.651l.544 2.77c1.14 5.703 2.453 11.28 4.226 16.824.472 2.365.175 3.827-.582 6.094-3.823 0-5.981-.059-8.848-2.707-1.19-1.41-2.36-2.837-3.507-4.281-1.955-2.391-4.153-4.2-6.645-6.012l1-2 4 2v2h2v2h3l1 4h3c.167-3.915.024-7.26-.938-11.063-1.521-6.217-1.718-12.566-2.062-18.937z" fill="#BC594D"/><path d="M892 394h2c1.565 8.644.29 14.91-3 23h-2l.07 2.195c.188 10.039.188 10.039-2.07 14.805l-2 1a106.524 106.524 0 00-2.125 7.063A722.585 722.585 0 00881 449l-3-.001c1.412-4.784 2.848-9.555 4.395-14.297 4.31-13.268 8.588-26.714 9.605-40.703z" fill="#D9C4BE"/><path d="M794 234c2.643 1.322 2.824 2.55 3.938 5.25 1.12 2.652 2.187 4.945 3.75 7.375 3.697 6.69 2.498 15.668 2.497 23.135.002 2.168.02 4.336.04 6.504.027 6.86-.062 13.178-2.225 19.736h-1l.016-2.906c.018-3.552.03-7.104.039-10.656.005-1.538.012-3.077.02-4.615.013-2.21.018-4.419.023-6.628l.015-2.09c.05-3.676.05-3.676-1.113-7.105a292.287 292.287 0 01-.25-5.875c-.409-6.235-2.033-11.045-4.691-16.664C794 237 794 237 794 234z" fill="#D3B0A5"/><path d="M570 344h1l.06 1.757c.096 2.644.205 5.287.315 7.93.03.913.062 1.825.094 2.764.199 4.561.388 8.41 2.531 12.549l1-4c2.621 6.88 2.182 13.722 2 21l2 1v4h2l.586 2.047.789 2.703.773 2.672c.763 2.566.763 2.566 2.016 4.719C586 405 586 405 585 408c-11.251-21.247-15.439-39.995-15-64z" fill="#C57E77"/><path d="M638 444h2c.222 1.602.427 3.207.625 4.813l.352 2.707C641 454 641 454 639 457c-.31 2.743-.31 2.743-.266 5.855l-.012 3.553.028 3.78.02 3.847c.144 13.057 1.07 24.893 5.523 37.293.727 2.748.688 4.048-.293 6.672-6.38-15.116-8.347-29.746-8.188-46.125l.002-3.938c.045-9.514.045-9.514 1.186-12.937.222-1.892.406-3.789.563-5.688l.253-3.011L638 444z" fill="#E6C7C3"/><path d="M537 281l3 1h-2l-1 5-3.14.629c-4.339 1.248-6.771 3.93-9.61 7.308a1439.48 1439.48 0 01-3.105 3.512l-1.572 1.79c-2.461 2.755-5.032 5.392-7.636 8.011l-2.66 2.703C507 313 507 313 504 314a90.223 90.223 0 00-4 4c1.278-3.644 2.705-6.115 5.344-8.926l2.013-2.153 2.143-2.234 2.192-2.304c5.105-5.299 10.374-10.025 16.308-14.383l2.5-2.059 2.438-2.003 2.152-1.786L537 281z" fill="#DC7669"/><path d="M728 360l2 1c-2.788 1.83-5.348 3.124-8.5 4.25-12.266 4.49-21.482 11.559-30.5 20.813-2 1.937-2 1.937-4 1.937l-.813 1.875C685 392 685 392 682 394l1-6h3l.313-1.813c.812-2.585 1.676-3.392 3.687-5.187l2.563-2.688C695 376 695 376 697 376v-2h4v-2l5-1v-3l3.875-.688c4.739-1.034 8.7-2.912 12.96-5.19C725 361 725 361 728 360z" fill="#D1A09D"/><path d="M587 317h1v9h2v30h-2l-1 3c-1.367-6.98-2.513-13.9-3-21l-.164-2.203c-.26-6.56 1.38-12.522 3.164-18.797z" fill="#9F3C30"/><path d="M543 196v2c-1.398 1.191-1.398 1.191-3.375 2.563-10.226 7.44-21.449 17.046-28.625 27.562-2 2.875-2 2.875-5 3.875v-2l1.938-1.813c2.314-2.454 2.696-3.892 3.062-7.187l1.813-.313c2.579-.81 3.569-1.53 5.187-3.687.722-2.606.722-2.606 1-5h2v-2c1.645-1.621 1.645-1.621 3.813-3.438 2.999-2.518 2.999-2.518 5.761-5.285C532 200 532 200 535 200v-2c5.75-2 5.75-2 8-2z" fill="#C44546"/><path d="M672 190h2c-2.482 14.71-14.013 28.487-24 39a593.347 593.347 0 00-4.063 4.625l-1.722 1.977L643 237l-2-1 2-2v-4h3v-2h2v-2l3-1c5.445-4.851 8.291-9.97 10-17h2v-2h2v-5h2v-4l4-1 1-6z" fill="#D5998D"/><path d="M717 442l1 2c-1.987 2.576-3.987 4.987-6.293 7.285-1.895 1.9-3.71 3.797-5.496 5.793l-1.414 1.578a688.962 688.962 0 00-2.867 3.235c-2.284 2.537-3.634 4.01-6.93 5.109-.846 2.168-.846 2.168-1.375 4.75-1.296 4.839-2.764 7.12-6.625 10.25l-1-2c3.84-10.873 10.568-18.485 18.579-26.511 1.608-1.64 1.608-1.64 3.581-4.216 2.57-3.174 5.464-5 8.84-7.273z" fill="#D99089"/><path d="M572 327c1.62 2.572 2.044 3.677 1.625 6.75L573 336h2l-.438 2.75c-1.102 7.86-1.992 15.386-.562 23.25.374 3.663.688 7.331 1 11-4.958-4.958-4.546-13.396-5-20h-1c-.698-8.147-1.282-15.883 0-24l2 3 1-5z" fill="#903A33"/><path d="M605 574l3.848.988c10.34 2.635 20.655 5.071 31.152 7.012l2.098.398c8.953 1.698 17.786 3.093 26.902 3.602v2c-11.47 1.916-21.572-.418-32.477-3.996-4.025-1.147-8.02-1.847-12.148-2.504-6.799-1.087-13.013-2.793-19.375-5.5v-2z" fill="#C9867D"/><path d="M768 230l8 2c.7 2.246 1.384 4.497 2.063 6.75l1.16 3.797c.704 3.127.944 4.548-.223 7.453l-.918-2.45-1.27-3.238-1.23-3.199c-1.735-3.414-3.759-5.555-6.582-8.113l-1.102 2.563C760.504 252.248 760.504 252.248 755 255v-5l1.938-.813c2.393-1.074 2.393-1.074 3.062-4.187.216-1.392.402-2.788.563-4.188L761 237l3-1 1-2a249.263 249.263 0 013-4z" fill="#C45648"/><path d="M685 482c1.264 3.792.473 4.355-1 8-.57 2.444-1.039 4.896-1.496 7.363a92.473 92.473 0 01-1.04 4.805c-2.172 9.092-2.13 18.529-2.464 27.832l3 1-1 9h-4v-3l-.035-5.445-.028-6.68-.025-3.344c-.028-9.611.692-18.15 3.525-27.343l.659-2.233c1.045-3.475 2.116-6.787 3.904-9.955z" fill="#C1A4A0"/><path d="M733.813 597.938l3.519.027L740 598c-3.444 2.296-6.72 3.09-10.688 4l-2.293.526c-13.698 3.038-27.035 3.765-41.019 3.474v-2l2.766-.136c3.402-.174 6.803-.36 10.204-.554 1.47-.081 2.939-.158 4.408-.23 2.119-.103 4.235-.225 6.352-.35l3.857-.206c3.55-.545 5.48-1.523 8.413-3.524 3.943-1.13 7.728-1.104 11.812-1.063z" fill="#CEB4B5"/><path d="M685 132c19.01-.502 35.695 2.147 54 7v1h-9v-2l-3.563.125c-2.83.1-4.763-.228-7.5-1.094-5.024-1.522-10.161-1.493-15.375-1.656l-3.083-.117c-2.493-.094-4.986-.18-7.479-.258v-2h-8v-1z" fill="#D19692"/><path d="M779 437c-12.6 5.032-12.6 5.032-17.25 6.063-7.794 1.948-14.556 5.85-21.465 9.863L738 454l-2-1c5.75-4 5.75-4 8-4v-3c6.695-6.148 15.367-6.9 23.996-7.71 2.19-.237 2.19-.237 4.817-1.415 2.591-1.037 3.582-.65 6.187.125z" fill="#CF998F"/><path d="M698 354v3h-3l-.313 1.938L694 361l-3 1a140.794 140.794 0 00-3.414 3.402c-1.967 1.981-4.013 3.853-6.086 5.723l-2.219 2.008C677 375 677 375 674.457 376.48c-2.638 1.632-4.287 3.336-6.27 5.707l-1.832 2.168L665 386c0-4.213 1.841-5.342 4.688-8.375l2.636-2.836c4.28-4.46 8.586-8.671 13.364-12.601l2.886-2.395C691 358 691 358 693 358v-2c3-2 3-2 5-2z" fill="#D4938A"/><path d="M606 350c1.343 4.373.316 7.915-.75 12.25-.377 1.606-.752 3.213-1.125 4.82l-.574 2.47c-.861 3.844-1.59 7.71-2.301 11.585-.19 1.039-.19 1.039-.386 2.099-.29 1.591-.578 3.184-.864 4.776-3.79-.695-3.79-.695-5.688-3.438-1.662-4.51-2.038-8.788-2.312-13.562 2.285 2.285 2.971 4.125 4.125 7.125l1.07 2.758L598 383l.304-1.845c3.725-22.327 3.725-22.327 7.696-31.155z" fill="#A3746D"/><path d="M869 350c2.054 5.128-.812 9.795-2.84 14.543-9.846 21.3-9.846 21.3-16.16 24.457.422-1.65.863-3.295 1.313-4.938l.738-2.777L853 379l3-1c2-2.999 2.423-4.538 3-8 .577-3.462 1-5.001 3-8h2l-.313-3.188C864 355 864 355 866.5 352.063L869 350z" fill="#CE8D7C"/><path d="M568 156l2 1c-1.813 2-1.813 2-4 4h-3v2h-3v2h-4v2c-2.188 1.438-2.188 1.438-5 3-3.517 1.973-3.517 1.973-6.5 4.625-2.015 1.847-3.838 2.015-6.5 2.375v2h-3v2l-2.375.938c-2.548.99-2.548.99-4.625 2.062 1.476-3.822 3.388-5.14 6.875-7.188 4.308-2.62 8.322-5.417 12.313-8.5C558.11 160 558.11 160 564 160v-2c1.875-1.063 1.875-1.063 4-2z" fill="#CC8682"/><path d="M605 163a809.913 809.913 0 01-4.5 2.313l-2.531 1.3a81.392 81.392 0 01-6.817 2.813c-4.184 1.536-8.12 3.426-12.09 5.449l-2.102 1.059c-4.526 2.293-8.981 4.685-13.358 7.254C562 184 562 184 560 184v-3h5v-3l-2-1c3.144-2.41 5.399-3.109 9.25-3.188 6.89-.466 12.625-3.77 18.7-6.804C601.4 161.8 601.4 161.8 605 163z" fill="#CB9086"/><path d="M669 586h11v2l19-1-1 2c-1.89.344-1.89.344-4.25.5-2.692.18-4.655.46-7.156 1.512-8.004 3.05-16.939 1.102-24.594-2.012v-1h7v-2z" fill="#B23931"/><path d="M794 344c-5.081 5.081-14.81 4.93-21.617 5.855-6.054.856-11.579 2.21-17.383 4.145-2.333.04-4.667.044-7 0v-3c6.759-2.08 12.956-2.211 20-2v-2l2.563-.148c7.543-.458 7.543-.458 14.937-1.914 3.05-.818 5.376-1.133 8.5-.938z" fill="#D39A9A"/><path d="M876 287h1c4.111 18.187 2.095 43.541-5 61l-2 1c-.314-4.947-.512-8.482 1.875-12.875 6.857-14.151 4.368-33.885 4.125-49.125z" fill="#DDC4B9"/><path d="M792 313h2c-1.557 4.671-4.084 8.087-7 12 6.69-1.996 12.727-4.02 18.477-8.047C807 316 807 316 809 316l1-3 3 1c-4.968 6.747-4.968 6.747-9.313 7.813L801 322l-1 2c-5.013 2.256-9.624 2.215-15 2v-6h2l1-4h3l1-3z" fill="#BE665E"/><path d="M780 250l3 1c2.361 14.061 3.983 30.044 0 44h-2l-2 6c-1.137-3.41-.874-3.927.375-7.125 4.897-13.952 2.9-29.558.625-43.875z" fill="#BDA49E"/><path d="M822 412h2c-.334 2.888-.897 3.903-3.047 5.93-17.647 12.7-17.647 12.7-24.332 11.722L795 429c1.375-1.5 1.375-1.5 3-3h2v-2l3.313-.813c3.57-.827 3.57-.827 5.125-2.687 2.268-2.178 4.778-2.34 7.82-2.875L818 417l1-3h3v-2z" fill="#BA8472"/><path d="M661 133l1 2h2v-2l3 1-1 2 .5 2.25c.578 3.178.157 5.609-.5 8.75h-2v11l-3-1v-24z" fill="#8D3A35"/><path d="M702 192c7.092 6.344 8.031 17.064 9 26 .257 5.025.281 10.032.25 15.063l.023 3.912-.007 3.748-.007 3.367c-.253 2.841-.785 4.5-2.259 6.91h-1c-.125-7.625-.125-7.625 1-11 .805-14.545-.839-28.106-5.352-41.984-.64-1.99-1.163-3.984-1.648-6.016z" fill="#E4D4D3"/><path d="M458 394h2l.516 2.832a811.219 811.219 0 005.126 25.607c.97 4.509 1.763 8.987 2.358 13.561-2-3-2-3-3-6.125-.669-3-.669-3-3-3.875v-8h-3l.035-2.71c.054-7.172-.117-14.175-1.035-21.29z" fill="#D0A4A2"/><path d="M894 334c2.157 4.315 3.124 6.833 3.114 11.735v3.64l-.016 3.945-.005 4.027c-.003 3.535-.013 7.07-.024 10.604-.01 3.606-.015 7.212-.02 10.819-.01 7.076-.028 14.153-.049 21.23h-2l.016-3.798c.018-4.758.03-9.516.039-14.275.005-2.039.012-4.078.02-6.117.059-13.97-.271-27.862-1.075-41.81z" fill="#A82122"/><path d="M686 574h4l1 2c2.025.652 2.025.652 4 1v4l4 1 1 5c-2.707.902-4.238 1.119-7.012 1.098l-2.295-.01-2.38-.025-2.417-.014c-1.965-.012-3.93-.03-5.896-.049v-2l16-1-5-3.813c-2.813-2.144-2.813-2.144-5-4.187v-3z" fill="#C48178"/><path d="M872 500h2c-4.399 9.435-11.562 17.93-20 24h-3l-2 6-5 1 1.313-1.188c1.822-1.803 1.822-1.803 3.062-4.375 1.954-2.93 3.418-3.204 6.625-4.437 1.344-2.017 1.344-2.017 2-4h2l.375-1.938L860 513l2-1c1.134-2.017 1.134-2.017 2-4h3l1-3-2-1 2.438-.875c2.695-.858 2.695-.858 3.562-3.125z" fill="#C85044"/><path d="M679 164l6 1 1 4 5 1 1 3 2.063 1.375L696 176c.125 2.375.125 2.375 0 5 .927 2.738.927 2.738 2 5-2.665-2.369-4.524-4.763-6.313-7.813-2.861-4.746-6.641-9.664-11.687-12.187l-.148 1.758c-.448 4.681-1.15 8.817-2.852 13.242h-1c.779-11.522.779-11.522 3-17z" fill="#CE9F94"/><path d="M788 412v3c-3.508 1.604-6.144 2.22-10 2v2l-3.07.55-4.055.762-2.016.358c-4.4.841-7.908 2.265-11.859 4.33-3.875.688-3.875.688-7 1 2.239-2.534 4.129-3.633 7.316-4.719l2.569-.886 2.678-.895 2.595-.895a354.408 354.408 0 0115.826-4.974C786.195 412 786.195 412 788 412z" fill="#DA9792"/><path d="M542 284l2 3c-.758 2.758-.758 2.758-2.125 6.125-2.13 5.508-3.79 10.997-5.125 16.75l-.493 2.086c-1.056 4.66-1.726 9.29-2.257 14.039h-2c.139-3.105.287-6.209.438-9.313l.119-2.67.127-2.568.11-2.364C533 307 533 307 534 304h2l.75-3.25c1.412-5.69 3.347-11.209 5.25-16.75z" fill="#C59B89"/><path d="M599 465l12 6v4a600.893 600.893 0 01-5.75-.375c-1.067-.07-2.135-.14-3.234-.21-2.818-.388-4.599-.972-7.016-2.415 1.75-3.875 1.75-3.875 4-5v-2z" fill="#936053"/><path d="M558 574c4.889.703 9.173 2.593 13.688 4.5l2.337.973c5.573 2.326 5.573 2.326 7.975 3.527l1 3c2.755 1.18 2.755 1.18 6 2.063 2.017.592 4.022 1.227 6 1.937l1 2c-13.728-2.792-25.893-10.229-38-17v-1z" fill="#C9988F"/><path d="M480 234c1.125 3.75 1.125 3.75 0 6l-3 1c-.914 2.035-.914 2.035-1.5 4.438-1.171 4.343-1.171 4.343-4.5 6.562-1.205 2.552-1.205 2.552-2 5h-2l.188 2.75c-.205 3.542-.715 4.777-3.188 7.25h-2c.524-5.368 2.404-9.118 5.063-13.688l1.204-2.109c3.514-6.045 7.44-11.68 11.733-17.203z" fill="#C68582"/><path d="M469 297c1.641 4.017.177 7.196-1.188 11.063-2.389 7.124-4.061 14.262-5.467 21.64-1.378 7.073-1.378 7.073-3.345 10.297-.378-6.46.276-11.888 2.148-18.074.92-3.161 1.607-6.331 2.29-9.551 1.232-5.487 3.014-10.37 5.562-15.375z" fill="#D3BFB2"/><path d="M675 398l3 1c-.93 4.19-2.797 7.77-4.75 11.563-3.256 6.406-6.351 12.86-9.25 19.437h-1c-.282-4.064.45-6.35 2.438-9.875 2.217-4.184 3.255-7.42 3.562-12.125h2v-4h2l.438-2.438C674 399 674 399 675 398z" fill="#CF8378"/><path d="M732 338l1 3c-4.786 2.247-8.726 3.262-14 4l-1 2h-6v2h-4v2c-3.418 2.54-5.758 3.364-10 3 9.667-7.86 22.017-13.02 34-16z" fill="#D19A92"/><path d="M488 446l2 1a88.508 88.508 0 011.438 6.125c1.076 4.967 2.52 9.218 4.562 13.875 4 12.71 4 12.71 4 17h-2l-1 2-.48-3.008c-1.411-8.357-3.418-15.844-6.446-23.773-1.463-4.384-1.957-8.616-2.074-13.219z" fill="#D9D1C4"/><path d="M659 440h1c.252 5.831-.144 11.351-1 17.125-1.573 10.895-1.179 21.896-1 32.875h-1c-1.227-5.761-1.192-11.45-1.188-17.313v-3.207c.147-20.357.147-20.357 3.188-29.48z" fill="#E3DDD8"/><path d="M516 192l2 1-1.326 1.294C508.273 202.521 500.223 210.706 493 220a423.913 423.913 0 01-2.813 3.313c-1.628 2-3 3.9-4.375 6.062L484 232h-2c7.316-15.37 21.985-28.305 34-40z" fill="#E0C2C0"/><path d="M819 392l1 4a797.726 797.726 0 01-4.363 3.633c-1.36 1.136-2.69 2.31-4.012 3.492-3.277 2.34-6.667 4.033-10.625 4.875-2.246-.426-2.246-.426-4-1 2.122-1.339 4.247-2.671 6.375-4l1.828-1.156C809.773 399 809.773 399 812 399v-2c4.385-3 4.385-3 7-3v-2z" fill="#D69E93"/><path d="M824 549l2 2 4-2c-4.285 5.713-9.386 9.342-15.313 13.25l-3.238 2.14L809 566l-1-4c7.2-6 7.2-6 13-6l.375-2.375C822 551 822 551 824 549z" fill="#CF8E7C"/><path d="M711 220c2.415 3.623 2.182 5.276 2.063 9.563-.285 4.379-.285 4.379.937 8.437-.016 2.242-.016 2.242-.25 4.875l-.203 2.617c-.623 2.856-1.772 4.23-3.547 6.508l-.5 3.625L709 259l-3 2-2-2c4-8 4-8 5.041-9.74 1.242-2.927 1.283-5.382 1.373-8.557l.117-3.652.094-3.801.117-3.848c.094-3.134.18-6.268.258-9.402z" fill="#C54F49"/><path d="M643 153c-6.194 2.205-12.35 3.82-18.77 5.234-3.81.903-7.5 2.057-11.207 3.313C611 162 611 162 608 161l3.438-1.375c3.61-1.196 3.61-1.196 4.562-3.625 3.195-1.065 5.83-1.245 9.188-1.438 3.947-.268 7.623-.629 11.437-1.687C640 152 640 152 643 153z" fill="#CEA699"/><path d="M541 393l1 3 3 1a92.834 92.834 0 013.438 7.188c2.152 4.958 4.434 9.392 7.562 13.812l-1 2-3-1c-.688-2.063-.688-2.063-1-4h-2l-.586-1.934-.789-2.503-.773-2.497c-.66-2.244-.66-2.244-2.852-3.066-.594-2.649-.742-5.292-1-8h-2v-4z" fill="#CD8B7C"/><path d="M455 332l3 1c-.875 4.875-.875 4.875-2 6a66.316 66.316 0 00-.205 4.336l-.06 2.79-.051 3.034-.063 3.09c-.066 3.27-.125 6.542-.184 9.812l-.13 6.635c-.108 5.434-.21 10.869-.307 16.303-2-2-2-2-2.243-4.942l.013-3.761v-2.043c.004-1.436.012-2.872.024-4.308.018-2.146.02-4.292.02-6.438.056-21.861.056-21.861 2.186-31.508z" fill="#D53F2F"/><path d="M857 309h1l-1 29-4 2 .188 2.813C853 346 853 346 851.487 347.699c-.49.43-.982.859-1.488 1.301a310.385 310.385 0 013.563-16.313c1.33-5.642 1.926-11.127 2.226-16.91.182-2.394.54-4.48 1.211-6.777z" fill="#CFABAA"/><path d="M485 262l1 2c-.725 1.873-.725 1.873-1.914 4.148l-1.301 2.533-1.41 2.694c-3.812 7.432-7.364 14.828-10.375 22.625-1.786-5.686.397-11.793 3-17l1.871-1.754c2.48-2.617 3.776-5.181 5.317-8.433 2.743-5.744 2.743-5.744 3.812-6.813z" fill="#D7B6AF"/><path d="M580 450c3 2 3 2 3.938 4.063.895 2.144.895 2.144 3.187 2.687L589 457l-2 7-9-2 1-5 3 1v-4h-2v-4z" fill="#BE5141"/><path d="M661 434c1 3 1 3 0 6h-2a582.305 582.305 0 00-3 40h-1c-.1-4.177-.172-8.353-.22-12.53-.02-1.415-.047-2.83-.082-4.245-.23-9.577.448-18.273 4.302-27.225l2-2z" fill="#BC4D43"/><path d="M641 296c0 4.266-2.545 5.995-5.375 8.875-3.426 3.487-5.948 6.468-7.625 11.125l-2.5 1.875c-3.206 2.725-3.645 5.083-4.5 9.125l-3-1c1.28-4.583 2.975-7.37 6-11l2.078-2.613c4.676-5.812 9.516-11.246 14.922-16.387z" fill="#DAB1AB"/><path d="M485 255l3 1c-.313 2.875-.313 2.875-1 6l-3 2c-1.214 1.947-1.214 1.947-2.188 4.125l-1.042 2.195L480 272h-3l-1 3c.875-4.75.875-4.75 2-7l.438-2.563L479 263l2-1c1.116-1.65 1.116-1.65 2.125-3.563L485 255z" fill="#B83D34"/><path d="M612 238l2 1-2 2-.875 2.5c-1.125 2.5-1.125 2.5-3.25 3.813L606 248l1 3a201.533 201.533 0 01-3.25 3.563l-1.828 2.003C600 258 600 258 597.766 257.715L596 257l2.438-2.813c3.645-4.247 7.175-8.587 10.707-12.93C611 239 611 239 612 238z" fill="#CE7C73"/><path d="M600 593l21 2 1 3c2.56 1.03 2.56 1.03 5.563 1.688l3.066.761L633 601v1c-11.504-.975-22.273-3.765-33-8v-1z" fill="#C9A39F"/><path d="M685 266l2 1-1 2h-3v2h-5l-.875 2.375C676 276 676 276 674 278c-3.8 1.52-6.91 2.24-11 2 3.482-3.983 7.542-6.2 12.125-8.688l2.207-1.22c2.54-1.401 5.074-2.795 7.668-4.092z" fill="#D65951"/><path d="M909 414h1c-.877 10.518-3.628 20.244-7.063 30.188l-.78 2.289c-1.916 5.402-1.916 5.402-4.157 6.523.643-4.451 1.707-8.589 3.063-12.875l1.097-3.492L903 434h2l1-14h2l1-6z" fill="#E5DAD2"/><path d="M854 277h2c-2.041 10.87-4.525 19.981-11 29l-1-2c.693-1.98 1.396-3.958 2.176-5.906.69-1.752 1.27-3.545 1.824-5.344 1-2.75 1-2.75 2.563-4.625 2.167-3.205 2.06-6.297 2.437-10.125l1-1z" fill="#A8574A"/><path d="M619 369h1c.027 1.396.047 2.792.063 4.188l.035 2.355C620 378 620 378 619.514 380.309c-.53 2.77-.72 5.394-.83 8.21l-.127 3.096-.12 3.197-.13 3.256A3018.38 3018.38 0 00618 406l-2-1c-.2-8.882-.122-17.606.938-26.438l.263-2.202c.656-5.073.656-5.073 1.799-7.36z" fill="#CFA89F"/><path d="M531 324c2 2 2 2 2.227 4.706-.01 1.12-.02 2.24-.032 3.396l-.02 3.671-.05 3.852-.027 3.875c-.024 3.167-.057 6.333-.098 9.5h-1c-1.745-6.34-2.193-12.461-2.188-19l-.001-2.285c.054-5.445.054-5.445 1.189-7.715z" fill="#AD4436"/><path d="M618 418h2c.105.548.21 1.097.32 1.661.493 2.552.992 5.102 1.492 7.651l.544 2.77c1.14 5.703 2.453 11.28 4.226 16.824.472 2.365.175 3.827-.582 6.094l-7-1 1-2 3 1c-.377-7.327-1.388-14.072-3.3-21.152-.97-3.944-1.363-7.805-1.7-11.848z" fill="#D8B6AB"/><path d="M888 421c1.037 3.215.94 5.41.188 8.688l-.52 2.386C887 434 887 434 885 435a106.524 106.524 0 00-2.125 7.063A722.585 722.585 0 00881 449l-3-.001c6.157-21.082 6.157-21.082 10-28z" fill="#CC9C97"/><path d="M605 574l3.848.988c9.39 2.39 18.74 4.633 28.28 6.336C640 582 640 582 643 584c-13.014-1.033-25.92-2.86-38-8v-2z" fill="#E4D6C9"/><path d="M510 331l5 1c.2 3.145.383 6.291.563 9.438l.17 2.662c.32 5.78.055 11.163-.733 16.9-2-2-2-2-2.227-4.706.01-1.12.02-2.24.032-3.396l.02-3.671.05-3.852.027-3.875c.024-3.167.057-6.333.098-9.5h-2l-1 2v-3z" fill="#933E3B"/><path d="M730 158c4.317-.2 7.042.398 11 2l3.813.375c3.984.406 6.867 1.804 10.355 3.703 2.228 1.121 4.364 1.614 6.832 1.922v2h3v2c-1.501-.434-3-.872-4.5-1.313l-2.531-.738a123.281 123.281 0 01-6.75-2.387c-4.343-1.65-8.755-2.97-13.219-4.25l-2.348-.681c-1.883-.547-3.767-1.09-5.652-1.631v-1z" fill="#D5C7C5"/><path d="M514 364h2c3.424 10.11 4.757 20.437 6 31-4.471-4.471-4.96-11.08-6.125-17.063-.182-.897-.364-1.795-.55-2.72C514.56 371.35 514 367.966 514 364z" fill="#DDD3D1"/><path d="M910 325c2.132 3.198 2.351 4.53 2.668 8.262l.268 3.142.251 3.284.288 3.224c.477 5.898.52 11.252-.475 17.088h-1c-1.26-11.7-2.356-23.219-2-35z" fill="#9B675F"/><path d="M714 175c4.023 2.417 5.039 4.953 6.563 9.313 1.217 3.437 2.427 6.668 4.09 9.917C726 197 726 197 726 200l-3 1-.77-2.957-1.043-3.856-1.019-3.832c-1.124-3.23-1.797-4.138-4.168-6.355-.73-2.262-.73-2.262-1.188-4.688l-.48-2.449L714 175z" fill="#C9A899"/><path d="M605 158l2 1-1 3c-5.28 2.609-11.145 4.367-17 5l1-2h2l.188-1.875c.812-2.125.812-2.125 3-3.375 3.047-.813 5.673-.821 8.812-.75l1-1z" fill="#B5302F"/><path d="M588 356h2c3.23 15.233 3.23 15.233 3.79 22.95.214 2.092.652 4.024 1.21 6.05l-3-2a108.817 108.817 0 01-1-7l-1-1c-.797-3.306-1.377-6.657-2-10l-.688-3.438C587 359 587 359 588 356z" fill="#B45B51"/><path d="M580 286c1.207 3.622.72 4.065-.875 7.375-2.617 6.143-2.8 12.03-3.125 18.625-.27 2.35-.62 4.664-1 7h-1l-1-6h-1c-.399-5.463.999-9.598 2.875-14.625l.816-2.273c1.262-3.47 2.538-6.853 4.309-10.102z" fill="#D19E9E"/><path d="M882 299c2.771 2.346 3.52 4.148 4.188 7.688l.48 2.449L887 311h2c.505 2.728 1.004 5.457 1.5 8.188l.434 2.33c.698 3.876 1.256 7.523 1.066 11.482-2.297-2.297-2.499-3.392-3.184-6.508-.205-.905-.41-1.81-.623-2.742l-.63-2.875c-1.715-7.799-1.715-7.799-4.223-15.367C882 302 882 302 882 299z" fill="#DDC0BE"/><path d="M642 231h2c-1.3 6.953-7.04 12.295-12 17l-2.813 2.813L627 253l-2-1 1.277-1.172 1.66-1.578 1.653-1.547c1.57-1.897 1.997-3.3 2.41-5.703h3v-4h4v-5h3v-2z" fill="#C25253"/><path d="M630 220l1 2-1 3h-2l-.75 1.75c-2.462 4.432-5.906 6.8-10.25 9.25l-3 2c1.653-4.048 4.498-6.975 7.438-10.125l1.486-1.629c2.25-2.435 4.305-4.398 7.076-6.246z" fill="#D17775"/><path d="M530 205l2 1-1.573 1.541a2885.684 2885.684 0 00-7.115 7.022l-2.474 2.423c-3.544 3.516-6.915 6.908-9.733 11.041C509 231 509 231 506 232v-2l1.938-1.813c2.314-2.454 2.696-3.892 3.062-7.187l1.828-.305c2.585-.827 3.295-1.686 4.922-3.82 3.342-4.137 7.2-7.453 11.25-10.875l1-1z" fill="#C29593"/><path d="M822 326l3 1c-3.697 5.465-9.292 10.106-15.785 11.672L807 339l1-2h3v-3h2v-2c1.863-1.543 1.863-1.543 4.313-3.188l2.425-1.667L822 326z" fill="#D48B88"/><path d="M768 230l8 2c.7 2.246 1.384 4.497 2.063 6.75l1.16 3.797c.704 3.127.944 4.548-.223 7.453l-.918-2.45c-3.2-8.22-3.2-8.22-9.082-14.55l-2 4c-1-3-1-3-.063-5.188L768 230z" fill="#C99088"/><path d="M594 146v2c-1.268.506-2.54 1.005-3.813 1.5l-2.144.844C586 151 586 151 583 151v3c-4.12 1.998-7.452 2.178-12 2 2.428-4.857 11.397-7.073 16.348-8.836 2.25-.66 4.3-1.164 6.652-1.164z" fill="#CC7C7E"/><path d="M633 602c4.063.14 8.125.288 12.188.438l3.486.119 3.369.127 3.094.11c2.701.194 5.225.61 7.863 1.206v2c-10.38.487-19.862-.96-30-3v-1z" fill="#D5C3C3"/><path d="M517 515c5.234 4.273 9.671 8.816 14 14l-1 2-4-3-1 3v-2h-2c-2.445-3.464-3.772-6.964-5-11l-1-3z" fill="#D38F7F"/><path d="M863 479c.75 1.75.75 1.75 1 4l-1.75 1.688c-2.38 2.445-2.82 3.682-3.75 6.875-.889 2.94-1.292 4.229-3.5 6.437-2 1-2 1-5 2 1.348-3.745 3.045-6.717 5.375-9.938l1.871-2.613L859 485a462.21 462.21 0 004-6z" fill="#D17C73"/><path d="M746 578l2.063 1.813c3.184 2.371 6.26 3.716 9.937 5.187l1.938 1.25c3.383 1.23 6.65.585 10.062-.25 2.008-.985 4.01-1.982 6-3l3 1c-6.226 3.64-11.69 6.564-19 5-5.275-1.98-10.523-4.417-14-9v-2z" fill="#D6C1BA"/><path d="M692 145l2.336.219 3.039.281 3.023.281c2.499.247 2.499.247 4.602.219v4c-1.604.169-3.208.335-4.813.5l-2.707.281c-2.504.221-4.968.219-7.48.219l2-6z" fill="#C83429"/><path d="M740 598c-3.57 2.38-7.073 3.17-11.188 4.125l-2.212.55c-4.983 1.175-9.483 1.499-14.6 1.325v-1l6-2 1.945-.8c6.676-2.6 12.96-2.496 20.055-2.2z" fill="#D3A39E"/><path d="M500 352l2 1-.918 2.352a567.75 567.75 0 00-7.969 21.847C492 380 492 380 490 382c.501-6.723 2.4-12.184 5-18.375l1.117-2.73c2.6-6.328 2.6-6.328 3.883-8.895z" fill="#CEBDB3"/><path d="M726 201l2 1c2.54 8.077 2.22 16.636 2 25-2.686-4.03-4.261-6.652-4.195-11.547l.02-2.558.05-2.645.027-2.691c.024-2.187.057-4.373.098-6.559z" fill="#DFA699"/><path d="M546 188h3c-.545 3.817-2.068 5.557-5 8-2.962 1.445-4.687 2-8 2 .688-2.375.688-2.375 2-5 2.438-1.125 2.438-1.125 5-2l1.625-1.625L546 188z" fill="#BE4840"/><path d="M504 206c0 3.59-.896 4.748-2.875 7.688l-1.617 2.449L498 218h-2l-.688 2.25c-1.556 3.261-3.397 4.679-6.312 6.75l-2-1c5.506-6.819 11.115-13.505 17-20z" fill="#C84B48"/><path d="M636 134v2c-3.893 1.01-7.79 2.006-11.688 3l-3.341.867-3.233.82-2.967.762c-2.674.532-5.054.655-7.771.551 5.803-5.803 20.893-8 29-8z" fill="#DCC3BB"/><path d="M736 455l-1.512.855c-5.445 3.334-9.927 7.282-14.426 11.77l-1.719 1.704c-2.66 2.704-4.947 5.072-6.343 8.671h-2c1.465-4.994 4.381-7.672 8.063-11.125 4.288-3.855 4.288-3.855 6.937-8.875 1.996-1.203 1.996-1.203 4.438-2.25l2.433-1.078C734 454 734 454 736 455z" fill="#D5A39D"/><path d="M895 355h1c.025 4.553.043 9.106.055 13.66.005 1.546.012 3.091.02 4.637.013 2.235.018 4.469.023 6.703l.015 2.062c0 4.738-.453 9.258-1.113 13.938l-1-2-2-1 1-8h2v-30z" fill="#9B5D57"/><path d="M712 274h4v2c-2.905 2.042-4.401 3-8 3l-1 2h-8c2.625-4.875 2.625-4.875 6-6v2c3.795-.968 3.795-.968 7-3z" fill="#C0433C"/><path d="M659 216c0 3.998-1.358 4.812-4.063 7.688l-2.468 2.66L650 229a674.551 674.551 0 00-4.063 4.625l-1.722 1.977L643 237l-2-1 2-2v-4h3v-2h2v-2l3-1c1.85-1.826 1.85-1.826 3.625-4l1.852-2.188L658 217l1-1z" fill="#D0A395"/><path d="M739 140c5.196.6 9.87 1.75 14.813 3.438l2.021.658c2.942.988 4.942 1.68 7.166 3.904-3.972 1.08-6.426.858-10.313-.438l-2.675-.87L748 146v-3l-9-2v-1z" fill="#D39889"/><path d="M746 426l2 1-4 3-2 1.563c-4.621 3.321-8.394 3.876-14 4.437 2.914-3.231 5.577-4.969 9.563-6.688l2.878-1.261A87.256 87.256 0 01746 426z" fill="#D0978C"/><path d="M647 198c1.245 2.49.777 3.41 0 6h-2l-2 7-4 1v2a125.024 125.024 0 01-6 4l3-6h2l.813-2.313c1.184-2.68 2.125-3.704 4.187-5.687 1.36-1.982 2.698-3.98 4-6z" fill="#D2A19C"/><path d="M714 134c8.599.614 16.695 2.81 25 5v1h-9v-2l-3.563.125c-4.185 0-7.508-.682-11.437-2.125l-1-2z" fill="#DBBFB6"/><path d="M583 586c7.397.315 13.267 2.001 20 5 1.664.673 3.33 1.341 5 2v2c-5.495-.25-9.43-.895-14.16-3.945-3.377-1.936-7.126-2.943-10.84-4.055v-1z" fill="#B45A50"/><path d="M550 440c2.875.25 2.875.25 6 1 1.188 2 1.188 2 2 4l3 1 1 5 2.313.188c2.687.812 2.687.812 4.5 3.375L570 457a43.325 43.325 0 01-11-7v-2h-2c-2.734-2.529-4.93-4.896-7-8z" fill="#BC7674"/><path d="M751 254l4 1c-1.225 3.675-2.687 4.663-5.688 7.063l-2.574 2.097c-2.855 1.918-5.441 2.908-8.738 3.84 2-3 2-3 5-4 1.209-2 1.209-2 2-4h3l1-4h2v-2z" fill="#CC7976"/><path d="M809 539h2c-.125 2.25-.125 2.25-1 5-3.757 3.058-7.394 4.628-12 6a305.65 305.65 0 00-5 2c3.828-4.187 7.946-7.378 13-10h2l1-3z" fill="#D0938D"/><path d="M666 520c5.227 4.48 7.628 10.674 10 17l-5-1-3-10h-2v-6z" fill="#D28374"/><path d="M661 280c0 3 0 3-1 5h-2v2c-2.955 2.744-3.775 3-8 3v2h-3v-2h2l1-3c2.504-1.824 2.504-1.824 5.563-3.688l3.066-1.886L661 280z" fill="#DC8A85"/><path d="M793 576c-12.485 7.852-12.485 7.852-19 8v-2h5v-3c4.343-3.32 8.738-4.754 14-3z" fill="#C4726E"/><path d="M638 485h1l.297 3.043c.867 8.141 2.21 15.528 4.996 23.285.727 2.748.688 4.048-.293 6.672-4.149-9.829-9.344-22.238-6-33z" fill="#D8A6A1"/><path d="M692 378h2c.313 2.188.313 2.188 0 5-2.375 2.813-2.375 2.813-5 5h-2l-.813 1.875C685 392 685 392 682 394l1-6h3l.313-1.813c.79-2.516 1.771-3.425 3.687-5.187l2-3z" fill="#CA7E78"/><path d="M783 217c5.554 1.851 7.75 8.272 10.266 13.266C794 232 794 232 794 234l-3 1c-2.29-2.29-2.358-3.148-2.875-6.25-.89-4.448-2.422-7.147-5.125-10.75v-1z" fill="#CE8578"/><path d="M792 552l2 1c-3.09 4.06-4.99 6.47-10 8l-1 1c-1.666.04-3.334.043-5 0 2.805-2.994 5.612-5.2 9.125-7.313l2.633-1.613L792 552z" fill="#C07568"/><path d="M505 533h4v2l1.75.25c4.73 1.577 6.905 5.594 9.25 9.75l2 3c-6.832-3.028-12.685-8.996-17-15z" fill="#CD8B85"/><path d="M747 233h1c.313 2.688.313 2.688 0 6-2.375 2.75-2.375 2.75-5 5l-2 2c-2.632.856-5.295 1.39-8 2a111.385 111.385 0 0110.45-9.473c1.724-1.698 2.587-3.32 3.55-5.527z" fill="#CD817C"/><path d="M801 566h7c-1.375 1.5-1.375 1.5-3 3h-2l-1 3c-2.066.95-2.066.95-4.563 1.688l-2.503.761L793 575l2-5h4v-2h2v-2z" fill="#C78980"/><path d="M512 510h3c.65 1.247 1.296 2.498 1.938 3.75l1.09 2.11c.928 2.042 1.504 3.951 1.972 6.14h-2v-2l-5-1-1-9z" fill="#C15245"/><path d="M843 396v3l-3 1-.836 1.734c-1.629 3.17-4.145 5.207-6.789 7.516l-1.563 1.39A715.446 715.446 0 01827 414l-2-1 1-5 2.063.438c4.572-.682 7.208-3.829 9.937-7.438.728-2.134.728-2.134 1-4l4-1z" fill="#CF998F"/><path d="M489 380c1.83 3.077 2.19 4.82 1.54 8.328-.143.8-.285 1.599-.43 2.422l-.485 2.5-.46 2.547c-.377 2.07-.77 4.137-1.165 6.203h-2c.114-2.917.24-5.833.375-8.75.03-.825.062-1.65.094-2.5l.117-2.422.095-2.222c.357-2.355 1.156-4.04 2.319-6.106z" fill="#A98375"/><path d="M756 327l-2 4h-3v2c-5.041 2.815-9.226 4.519-15 5 2.565-2.984 5.48-4.376 9-6.063C755.252 327 755.252 327 756 327z" fill="#CFA3A0"/><path d="M792 313h2c-1.557 4.671-4.084 8.087-7 12l5-1c-2 2-2 2-4.625 2.125L785 326v-6h2l1-4h3l1-3z" fill="#D58983"/><path d="M658 492l2 1c.563 2.73.563 2.73 1 6.188.58 4.524 1.55 8.496 3 12.812-.375 2.375-.375 2.375-1 4v-2h-2l-1-6h-2v-16z" fill="#D3A9A0"/><path d="M540 281l3 1c-.45 1.96-.91 3.918-1.375 5.875l-.773 3.305C540 294 540 294 538 296c-.195-1.77-.381-3.541-.563-5.313l-.316-2.988C537 285 537 285 538 282l2-1z" fill="#B8584C"/><path d="M618 141v4c-1 1-1 1-3.285 1.098l-2.778-.036-2.785-.027L607 146v-3c3.83-1.802 6.781-2.196 11-2z" fill="#C9332B"/><path d="M698 532c2.594 2.594 2.99 4.86 4 8.375 1.282 4.551 1.282 4.551 3.188 8.852C706 551 706 551 705 554c-2-1.75-2-1.75-4-4v-4h-2l-1-14z" fill="#DCB0A3"/><path d="M646 518c2 1.688 2 1.688 4 4 .188 2.563.188 2.563 0 5l1 3 3 9c-4.674-3.84-7.613-9.34-8.25-15.363 0-1.881.114-3.761.25-5.637z" fill="#CE8B86"/><path d="M574 442l14 12-3 1-1.688-1.938c-2.533-2.259-3.995-2.693-7.312-3.062l-1 2c-.625-3.435-1-6.49-1-10z" fill="#D6998B"/><path d="M633 337l1 2c-.785 2.145-.785 2.145-2.063 4.813l-1.39 2.945L629 350c-1.107 2.395-2.211 4.79-3.313 7.188-.895 1.937-1.79 3.875-2.687 5.812-1.421-4.264.46-6.94 2.25-10.813l.95-2.119c5.146-11.414 5.146-11.414 6.8-13.068z" fill="#DFD7D1"/><path d="M872 500h2c-1.612 3.536-3.72 6.548-6 9.688l-2.125 2.949C864 515 864 515 862 516l1-7 1.938-.313L867 508l1-3-2-1 2.438-.875c2.695-.858 2.695-.858 3.562-3.125z" fill="#CD8F86"/><path d="M849.813 501.688L852 502c-2.325 4.521-4.946 7.044-9 10h-3c1.59-5.056 4.18-9.687 9.813-10.313z" fill="#CF7B74"/><path d="M685 482c1.264 3.792.473 4.355-1 8a163.858 163.858 0 00-.938 4.75c-.924 4.924-2.358 9.546-4.062 14.25h-1c-.32-5.308.828-9.62 2.375-14.625l.672-2.273c1.064-3.53 2.127-6.877 3.953-10.102z" fill="#DFCFCC"/><path d="M782 280h2c.027 1.75.046 3.5.063 5.25l.035 2.953c-.086 2.455-.39 4.459-1.098 6.797h-2l-2 6c-1.137-3.41-.874-3.927.375-7.125 1.675-4.657 2.234-8.95 2.625-13.875z" fill="#DABCB9"/><path d="M663 386c.823 2.367 1.11 3.643.363 6.07l-1.05 2.055-1.012 2.07c-1.528 2.12-2.909 2.828-5.301 3.805.56-3.99 1.757-6.526 4.063-9.813l1.66-2.394L663 386z" fill="#CF8478"/><path d="M576 387l3 1v3h2l.586 2.047.789 2.703.773 2.672c.763 2.566.763 2.566 2.016 4.719C586 405 586 405 585 408a1621.51 1621.51 0 01-3.938-7.688l-1.13-2.185c-1.872-3.692-3.415-6.964-3.932-11.127z" fill="#C7B3AE"/><path d="M902 294c5.573 8.36 8.35 19.043 8 29-2.044-3.595-2.998-7.397-4-11.375-.934-3.661-1.88-7.28-3.125-10.852C902 298 902 298 902 294z" fill="#E2DDD3"/><path d="M834 282c1.136 3.41.867 4.003-.438 7.188l-.87 2.167L832 293h-2l-.625 2c-1.887 4.116-4.58 7.459-7.375 11l-2-1 1.285-1.73c4.919-6.8 8.876-13.825 12.715-21.27z" fill="#D1B6AA"/><path d="M595 258c1.333 2.667.671 4.167 0 7h-2l-.313 3.375L592 272l-3 2c-1.132-3.385-1.18-4.635.434-7.895l2.004-2.918 1.996-2.957L595 258z" fill="#D39C97"/><path d="M443 325l3 1c.354 4.96-.77 7.634-3 12-.253 2.751-.253 2.751 0 5l-2 1c-.248-6.57.676-12.57 2-19z" fill="#C52C29"/><path d="M682 289c2.063.438 2.063.438 4 1-2.25 1.293-4.5 2.584-6.75 3.875l-1.922 1.105c-3.07 1.76-6.137 3.489-9.328 5.02l2-2.313c2.299-2.53 2.299-2.53 2-5.687.957-.2.957-.2 1.934-.402l2.504-.536 2.496-.527c2.043-.343 2.043-.343 3.066-1.535z" fill="#C89E9B"/><path d="M707 281l-3.324 1.242-4.364 1.633c-.72.27-1.442.539-2.185.816-3.726 1.396-7.44 2.811-11.127 4.309 3.083-4.228 3.083-4.228 5-6 2.813-.375 2.813-.375 5 0v-2c7.625-1.125 7.625-1.125 11 0z" fill="#CEA69B"/><path d="M501 232l3 1-1.438 1.75c-1.51 2.176-2.102 3.676-2.562 6.25l-2-1-.75 2.188c-1.36 3.06-3.08 5.28-5.25 7.812 1.137-5.115 3.03-9.668 6-14h2l1-4z" fill="#B43F3B"/><path d="M794 573l-1 2c-1.89.563-1.89.563-4.25 1-3.44.691-6.537 1.549-9.75 3v3l-4-1c2.984-2.6 6.11-4.786 9.5-6.813l2.219-1.332c2.813-1.055 4.435-.672 7.281.145z" fill="#CE4C40"/><path d="M877 451c1.097 3.29.8 4.713 0 8h-2v4h-2l-.25 2.313c-.896 3.21-1.966 3.98-4.75 5.687 1.443-4.738 3.372-8.989 5.625-13.375l.984-1.941A1361.59 1361.59 0 01877 451z" fill="#D9B4AB"/><path d="M645 421h1c-.73 6.425-1.974 12.853-4 19l-2 1c-.851-7.321 2.2-13.35 5-20z" fill="#CEA1A2"/><path d="M499 318c1.6 3.2.032 5.723-1 9h-2v2h-3l1 3-4 1c1.372-5.237 3.48-8.039 7-12l2-3z" fill="#CE6F69"/><path d="M664 298l3 1c-1.499 3.816-3.799 5.537-7 8l-1 2-2-1 1-4h2l.313-1.875C661 300 661 300 664 298z" fill="#CC7B71"/><path d="M706 152c2.606.087 5.208.194 7.813.313l2.236.068c5.528.275 5.528.275 7.795 2.119L725 156c2.606.722 2.606.722 5 1v1c-4.959.31-8.297-.308-12.867-2.2-3.607-1.354-7.36-2.058-11.133-2.8v-1z" fill="#DEBEBC"/><path d="M485 408h1l.076 2.263c.116 3.371.239 6.741.361 10.112l.12 3.563.127 3.398.11 3.142c.048 2.516.048 2.516 1.206 4.522.04 2.333.043 4.667 0 7-2.27-4.54-3.121-7.142-3.098-12.32l.01-3.809.026-3.996c.005-1.34.01-2.68.013-4.02.012-3.285.028-6.57.049-9.855z" fill="#D68A7E"/><path d="M776 304h2v4h-3l-.813 1.625L773 312l-1.25 3.125C770 318 770 318 766.812 319.375L764 320l1.242-1.645 1.633-2.168 1.617-2.144A128.529 128.529 0 00772 309h2v-2h2v-3z" fill="#CB9B97"/><path d="M542 284l2 3c-.828 3.145-.828 3.145-2.25 6.813l-1.39 3.644L539 301a465.223 465.223 0 00-2 6h-1c.392-5.958 1.465-10.525 4-16 .747-2.318 1.375-4.644 2-7z" fill="#DED7CE"/><path d="M660 548h2l.813 1.938c1.074 2.393 1.074 2.393 4.187 3.062v2l1.938.688C671 557 671 557 671.75 559.625L672 562c-3.59-1.466-5.364-3.368-7.688-6.438l-1.824-2.37C661 551 661 551 660 548z" fill="#CEA098"/><path d="M700 546l.25 1.875c.563 2.31.563 2.31 2.813 3.375L705 552v2h2l3 6h-2l-1 2-.188-2.375L706 557c-2.457-1.233-2.457-1.233-5-2-1.478-2.957-1.06-5.742-1-9z" fill="#CA5B4E"/><path d="M525 527c1.343.647 2.674 1.319 4 2l2.563 1.313c2.761 1.912 3.916 3.726 5.437 6.687h-5v-2h-2c-2.883-2.446-4.46-4.214-5-8z" fill="#C24A3C"/><path d="M488 451h1a4036.7 4036.7 0 012.5 8.375l.723 2.406.683 2.305.635 2.126C494 468 494 468 494 470h-2c-3.549-6.635-4.125-11.617-4-19z" fill="#C55249"/><path d="M476 360h2c.552 7.179-2.269 13.487-5 20h-1c.418-5.043.977-9.322 3-14 .376-1.992.72-3.992 1-6z" fill="#E3C2C0"/><path d="M616 328c1 2 1 2 .363 4.066l-1.05 2.497-1.13 2.687L613 340l-1.09 2.625c-2.652 6.246-2.652 6.246-4.91 7.375.394-4.83 1.272-7.955 3.879-12.156 1.927-3.169 3.487-6.517 5.121-9.844z" fill="#D9B8B3"/><path d="M469 288h2c-.433 6.82-1.908 11.916-5 18-1.895-6.59.201-12.038 3-18z" fill="#C03831"/><path d="M462 426l3 1c.95 2.285.95 2.285 1.688 5.063.25.919.502 1.838.761 2.785L468 437h-4c-2.326-3.634-2.163-6.77-2-11z" fill="#C2493E"/><path d="M456 378h1l1 8h1v8l-3 1c-1.861-5.584-1.138-11.311 0-17z" fill="#8C483F"/><path d="M511 332h2c-1.328 4.647-3.273 8.033-6 12l-1.625 3.313C504 350 504 350 502 351c.577-4.787 2.64-8.251 5.063-12.313l1.142-1.955c.925-1.58 1.86-3.157 2.795-4.732z" fill="#DCD1D2"/><path d="M704 135h11v2c-3.25 1.625-3.25 1.625-7 3-2.438-.813-2.438-.813-4-2v-3z" fill="#C4392D"/><path d="M696 514h1l.184 3.727.254 4.898.119 2.45c.186 3.526.428 6.848 1.103 10.323C699 538 699 538 697 541c-1.9-6.268-2.124-11.498-1.625-18l.172-2.637c.14-2.122.295-4.242.453-6.363z" fill="#D16254"/><path d="M616 406h2c.169 1.916.335 3.833.5 5.75l.281 3.234c.17 2.334.219 4.676.219 7.016h-2c-1.14-3.422-1.098-6.087-1.063-9.688l.028-3.574L616 406z" fill="#B35A4E"/><path d="M455 392l1 3h2c1.506 5.808 2.218 10.998 2 17-2.054-3.082-2.745-5.31-3.625-8.875-.39-1.543-.39-1.543-.79-3.117-.538-2.767-.699-5.2-.585-8.008z" fill="#C94242"/><path d="M647 318c0 3.903-1.266 4.862-3.75 7.813-2.992 3.623-5.743 7.217-8.25 11.187l-1-3a62.455 62.455 0 014.188-5.938l2.417-3.152A77.126 77.126 0 01647 318z" fill="#E0CCC8"/><path d="M752 209h1c.081 2.709.14 5.415.188 8.125l.076 2.305c.064 4.972-.608 8.206-3.264 12.57l-2-1 .621-2.273c1.733-6.585 2.943-12.93 3.379-19.727z" fill="#D1B4AF"/><path d="M643 135h5l1 17c-2.393-2.393-2.232-3.051-2.375-6.313-.37-4.318-1.498-6.56-4.625-9.687l1-1z" fill="#8C281F"/><path d="M626 139l2 2c-1.188 1.563-1.188 1.563-3 3-3.595-.284-6.704-1.587-10-3v-1c3.732-.878 7.165-1.256 11-1z" fill="#D7443D"/><path d="M590 571c5.135.642 9.994 1.683 15 3v2l2 1a315.736 315.736 0 01-5.313-.313l-2.988-.175c-3.029-.575-3.764-1.214-5.699-3.512l-3-2z" fill="#C5473A"/><path d="M539 539c2.629 1.522 4.844 2.844 7 5l1.813.25c3.495 1.198 4.968 3.853 7.187 6.75a84.76 84.76 0 01-7-2v-2l-1.813-.313c-2.5-.785-3.562-1.656-5.187-3.687v-2h-2v-2z" fill="#C05046"/><path d="M678 530l4 1-1 9h-4c0-3.411.491-6.63 1-10z" fill="#D29D8E"/><path d="M502 490c5.769 4.914 8.74 12.308 12 19-3.296-1.353-4.568-2.434-6-5.688-1.297-2.825-2.66-5.515-4.25-8.187C502 492 502 492 502 490z" fill="#DEC9B2"/><path d="M495 472h2a664.623 664.623 0 011.5 4.313l.844 2.425C500 481 500 481 500 484h-2l-1 2c-1.336-4.842-2.253-8.934-2-14z" fill="#D09C93"/><path d="M819 392l1 4c-6.143 5.571-6.143 5.571-11 6 2.065-4.021 3.922-6.013 8-8h2v-2z" fill="#D65953"/><path d="M606 350c1.516 3.975.499 7.205-.438 11.25l-.87 3.828L604 368h-2c-.592-6.665 1.517-11.87 4-18z" fill="#D4B0B0"/><path d="M838 251l3 1c.75 3.188.75 3.188 1 7l-4 5v-13z" fill="#DA9C98"/><path d="M639 214a84.76 84.76 0 01-2 7c-3.563 1.188-3.563 1.188-7 2 1.328-4.347 3.914-9 9-9z" fill="#CD5954"/><path d="M538 425c2.25-.063 2.25-.063 5 1a34.062 34.062 0 014 9l-1 2a986.408 986.408 0 01-4-4.875l-2.25-2.742C538 427 538 427 538 425z" fill="#D28E8A"/><path d="M892 394h2c.224 1.727.428 3.457.625 5.188l.352 2.917c.025 3.136-.633 5.09-1.977 7.895h-1c-1.068-5.577-.826-10.394 0-16z" fill="#D89690"/><path d="M812 332l1 2h-2v3l-3 1-2 3c-3.125.688-3.125.688-6 1l2-1c.652-2.025.652-2.025 1-4l7-2v-2l2-1z" fill="#C56961"/><path d="M908 321c2.637 2.575 3.219 4.543 3.293 8.11-.02 1.547-.055 3.094-.106 4.64l-.04 2.402A513.25 513.25 0 01911 342h-2c-.939-7.04-1.108-13.903-1-21z" fill="#A63930"/><path d="M903 301c2.26 3.389 3.17 6.68 4.188 10.563l.576 2.076c1.36 5.114 1.36 5.114.236 7.361l-2-1v-9h-2c-1.607-3.215-1.057-6.436-1-10z" fill="#CC6058"/><path d="M537 281l3 1h-2l-1 5-3.313.813c-3.304 1.064-4.637 1.534-6.687 4.187l-2-1c1.248-1.106 2.499-2.21 3.75-3.313l2.11-1.863L533 284l2.078-1.793L537 281z" fill="#D09E93"/><path d="M776 173c3.662.627 6.882 1.645 10.313 3.063l2.675 1.097L791 178v2h2v2l-3-1v-2l-9-1v-2l-5-2v-1z" fill="#C23D30"/><path d="M860 517c0 4.156-2.282 5.841-5 8.688l-1.445 1.548A604.116 604.116 0 01850 531c-.625-1.813-.625-1.813-1-4 2.161-3.242 3.72-4.048 7-6a89.165 89.165 0 004-4z" fill="#C38E7F"/><path d="M491 517c3.71 1.237 4.6 3 7 6l3 1 1 3c1.5 1.667 1.5 1.667 3 3l-1 2a178.718 178.718 0 01-13-14v-1z" fill="#CCA3A2"/><path d="M528 408c1.5 1.313 1.5 1.313 3 3v3l3 1v4h3l1 6c-4.512-3.997-7.565-8.467-10-14v-3z" fill="#C7B1B2"/><path d="M442 398l2 1c.625 3.063.625 3.063 1 6h1a108.817 108.817 0 01-1 7l-2 1c-1.036-5.05-1.103-9.874-1-15z" fill="#CB3231"/><path d="M511 328h3v3h-4l-.25 3.25c-.805 4.024-1.627 5.232-4.75 7.75v-4h2v-4h2l.438-2.438C510 329 510 329 511 328z" fill="#C64337"/><path d="M523 292l1 3-2.563 1.563c-4.346 2.887-9.076 6.715-11.437 11.437l-2-1a113.73 113.73 0 0115-15z" fill="#D4A5A0"/><path d="M602 282h2a95.536 95.536 0 01-7 17c-1.231-3.694-.644-6.206 0-10h3l2-7z" fill="#D4B6AD"/><path d="M612 238l2 1-2 2-1 2.5c-1 2.5-1 2.5-3 4.5h-3v2h-2c1.444-3.239 3.258-5.62 5.625-8.25l1.914-2.14L612 238z" fill="#D5A9A1"/><path d="M702 192c4.294 3.79 6.605 9.562 7.254 15.21-.004 1.915-.004 1.915-.254 4.79-2.108-3.163-2.979-5.808-4.063-9.438l-1.035-3.433c-.683-2.37-1.33-4.73-1.902-7.129z" fill="#CAB5B7"/><path d="M690 170l6 6v5c.927 2.738.927 2.738 2 5-4.22-3.769-7.757-8.14-8.25-13.938L690 170z" fill="#CD9996"/><path d="M708 479l2 1-7 14c-1.05-4.199-.728-6.794 0-11l3-1 2-3z" fill="#C6ACA3"/><path d="M671 410c1 2 1 2 .38 3.88l-1.032 2.253-1.104 2.441-1.181 2.551-1.17 2.574c-.958 2.104-1.922 4.204-2.893 6.301h-1c-.501-4.773 1.263-8.147 3.438-12.25l.986-1.93c2.392-4.636 2.392-4.636 3.576-5.82z" fill="#E2D6C9"/><path d="M801 408l-2 2-2-1-1 3c-2.985 1.955-4.264 2-8 2 1-3 1-3 3.688-4.688 3.402-1.348 5.695-1.57 9.312-1.312z" fill="#CB6E66"/><path d="M716 274h9c-2.349 2.349-4.271 3.035-7.375 4.188l-2.898 1.105c-2.78.72-4.078.692-6.727-.293 5.75-3 5.75-3 8-3v-2z" fill="#D3B5B5"/><path d="M881 249c1.339 1.662 2.671 3.33 4 5l1.813 2.125L888 258l-1 3v-2l-4 1c-1.193-3.877-2-6.916-2-11z" fill="#CF8B75"/><path d="M753 192c3.181-.466 5.253-.51 7.957 1.336A100.963 100.963 0 01766 198l-1 2-9-4v-3l-3-1z" fill="#D38A7F"/><path d="M749 574l1 2 2 1c.625 2.563.625 2.563 1 5-3 0-3 0-4.688-1.25C747 579 747 579 747 575l2-1z" fill="#BE6356"/><path d="M672 562c2.188.063 2.188.063 5 1 2.386 2.567 5 5.39 5 9l-4-2v-2l-1.875-.75c-2.476-1.456-3.076-2.628-4.125-5.25z" fill="#CF8B88"/><path d="M816 557l2 1c-3.11 3.288-6.016 5.837-10 8v-4c2.62-2.478 4.57-3.857 8-5z" fill="#C76D69"/><path d="M480 502l2.25 2.375c2.459 2.662 2.459 2.662 5 3.563L489 509c.75 3.125.75 3.125 1 6-3.61-1.203-4.108-2.244-6.125-5.375l-1.57-2.398C481 505 481 505 480 502z" fill="#D0A5A3"/><path d="M522 395h3v4h2l1 6-2 1a417.885 417.885 0 01-2-3.813l-1.125-2.144C522 398 522 398 522 395z" fill="#D09893"/><path d="M565 178v3h-5v3h-5v2l-3-1c3.248-3.821 7.943-7 13-7z" fill="#C83932"/><path d="M664 147h2l1 11-4 2 1-13z" fill="#C83E36"/><path d="M656 484c2.343 2.484 2.98 3.777 3.293 7.234l-.106 3.516-.082 3.547L659 501c-1.488-1.05-1.488-1.05-3-3-.293-3.355-.293-3.355-.188-7.188l.083-3.855L656 484z" fill="#AF6C60"/><path d="M717 442l1 2c-3.156 4.67-5.864 6.123-11 8 1.426-3.452 3.097-5.101 6.125-7.25l2.195-1.578L717 442z" fill="#D9B1AB"/><path d="M894 334c2.233 4.466 3.117 7.036 3.063 12.125l-.028 3.32L897 352c-2.934-2.934-2.462-6.183-2.625-10.125l-.117-2.285A762.735 762.735 0 01894 334z" fill="#C22F28"/><path d="M732 338l1 3c-6.4 3.077-6.4 3.077-9.438 2.688L722 343c2.66-3.442 5.903-3.995 10-5z" fill="#CA827C"/><path d="M461 322c2 3 2 3 1.828 5.559l-.578 2.878-.547 2.872c-.646 2.473-1.462 4.467-2.703 6.691-.236-6.404.177-11.846 2-18z" fill="#C5A792"/><path d="M888 261c3.008 1.504 3.68 3.851 5.188 6.813l1.667 3.207c1.157 3.011 1.365 4.068.145 6.98l-1-5h-2l-1-5h-2l-1-7z" fill="#D9C3AB"/><path d="M624 253c0 4.176-1.834 5.54-4.5 8.688l-2.531 3.011L615 267c0-2.97.082-5.176 1-8 2.375-1.625 2.375-1.625 5-3 1.751-1.582 1.751-1.582 3-3z" fill="#D2B3AE"/><path d="M618 234l2 4-2.25 1.25c-2.652 1.687-4.617 3.459-6.75 5.75.318-5.4 3.2-7.523 7-11z" fill="#D04F4C"/><path d="M656 180h2v8l-3 1v2h-3c1.213-3.724 2.509-7.378 4-11z" fill="#D8948C"/><path d="M803 168c4.026 1.38 6.733 3.304 10 6a155.71 155.71 0 005 3c-2 1-2 1-4.023.434-5.457-2.312-8.216-4.152-10.977-9.434z" fill="#D49F8B"/><path d="M765 170c12.248 3.025 12.248 3.025 16 6v2c-5.136-1.58-10.261-3.446-15-6l-1-2z" fill="#C9B5B1"/><path d="M695 150c2.605-.08 5.207-.14 7.813-.188l2.236-.076c5.5-.074 5.5-.074 7.963 1.776L714 153c-1.646.027-3.292.046-4.938.063l-2.777.035C704 153 704 153 703 152a69.603 69.603 0 00-4.063-.563L695 151v-1z" fill="#B5584B"/><path d="M593 150c-1.063 2-1.063 2-3 4-3.688.25-3.688.25-7 0v-3c6.286-2.429 6.286-2.429 10-1z" fill="#D03A34"/><path d="M605 574c1.73.455 3.46.914 5.188 1.375l2.917.773c2.717.8 5.286 1.755 7.895 2.852v1c-5.65-.601-10.662-2.075-16-4v-2z" fill="#CFA49A"/><path d="M835 516c0 3 0 3-1.715 4.938-.733.68-1.467 1.36-2.222 2.062-3.27 3.001-3.27 3.001-5.063 7l-4-1 13-13z" fill="#E2D2C7"/><path d="M592 458l5 2v2l2.25.688c3.261 1.556 4.679 3.397 6.75 6.312-3.777-1.813-7.373-3.907-11-6v-2h-3v-3z" fill="#CCB39B"/><path d="M839 399c-1.382 3.21-2.924 5.05-5.625 7.25l-1.914 1.578L830 409v-3h2l.313-1.813C833.524 400.33 834.94 399 839 399z" fill="#C04D46"/><path d="M592 371c2.186 2.186 2.683 3.539 3.625 6.438.26.782.52 1.564.79 2.37C597 382 597 382 597 385l2 1h-4c-2.402-4.804-2.611-9.731-3-15z" fill="#D7BAB4"/><path d="M896 279c3.838 3.838 5.177 9.732 6 15-3-3.625-3-3.625-3-7h-3c-.8-3.287-1.097-4.71 0-8z" fill="#CFA099"/><path d="M763 242l1 3c-1.363 2.227-1.363 2.227-3.313 4.625l-1.925 2.414C757 254 757 254 755 255v-5l1.75-.625c3.064-1.873 4.405-4.345 6.25-7.375z" fill="#D1A4A1"/><path d="M638 239c0 3 0 3-2.125 5.313L633 247a662.085 662.085 0 00-3.313 3.313L627 253l-2-1 1.277-1.172 1.66-1.578 1.653-1.547c1.581-1.91 1.822-3.337 2.41-5.703 2.5-1.188 2.5-1.188 5-2l1-1z" fill="#D6AAA3"/><path d="M486 228h1c.375 2.188.375 2.188 0 5-1.84 1.99-3.792 3.39-6 5v-5l3-1c1.209-2 1.209-2 2-4z" fill="#CC4847"/><path d="M863 479c.676 1.781.676 1.781 1 4-1.145 1.781-1.145 1.781-2.813 3.5-2.275 2.378-3.833 4.49-5.187 7.5h-2c1.388-3.89 3.215-6.966 5.625-10.313l1.914-2.675L863 479z" fill="#D1B6AF"/><path d="M790 432c-5.673 2.454-10.818 4.462-17 5v-2c2.08-.7 4.164-1.385 6.25-2.063l3.516-1.16c3.035-.73 4.391-.896 7.234.223z" fill="#C2544E"/><path d="M541 393l1 3 3 1c1.886 3.213 3 5.246 3 9l-4-1-1-8h-2v-4z" fill="#C4856C"/><path d="M833 378l1 4h-3l-.688 1.688c-1.698 2.992-3.733 5.047-6.312 7.312h-3c3.163-3.886 6.403-7.5 10-11l2-2z" fill="#CDABA2"/><path d="M859 374c0 3.843-1.302 5.418-3.375 8.625l-1.898 2.977C852 388 852 388 850 389c.422-1.65.863-3.295 1.313-4.938l.738-2.777L853 379l3-1c1.685-1.997 1.685-1.997 3-4z" fill="#D1AEAA"/><path d="M704 261c-2.395 2.9-4.312 3.502-8 4v2h-5c1-3 1-3 3.215-4.203l2.722-1.047 2.715-1.078C702 260 702 260 704 261z" fill="#C39183"/><path d="M465 257h2c.23 3.367.34 5.414-1.375 8.375L464 267h-2c.507-3.719 1.116-6.735 3-10z" fill="#C57E79"/><path d="M721 190c3.36 2.24 3.817 3.268 5 7v3l-3 1c-1.193-3.877-2-6.916-2-11z" fill="#CE837B"/><path d="M781 178c3.1.013 6.006.156 9 1 2.063 3.063 2.063 3.063 3 6-4.308-1.566-8.062-3.683-12-6v-1z" fill="#B78D8C"/><path d="M568 156l2 1c-1.813 2-1.813 2-4 4h-3v2h-3v2l-3-1c1.813-2 1.813-2 4-4h3v-2c1.875-1.063 1.875-1.063 4-2z" fill="#C78887"/><path d="M682.848 588.902L689 589c-1 2-1 2-2.64 2.621-3.063.492-6.01.473-9.11.442l-3.547-.028L671 592v-1c.957-.09.957-.09 1.934-.184l2.504-.254c.823-.08 1.647-.162 2.496-.246 2.293-.35 2.653-1.294 4.914-1.414z" fill="#D23F30"/><path d="M692 472l1 3c-3.213 5.738-3.213 5.738-7 7l2-7 4-1v-2z" fill="#CB7D72"/><path d="M586 408c4.878 4.155 7.992 9.976 10 16-4.036-1.345-4.854-3.86-6.688-7.438l-.97-1.814C586 410.289 586 410.289 586 408z" fill="#CDCECE"/><path d="M500 352l2 1-6 16h-1c.466-6.401 2.147-11.268 5-17z" fill="#E2DACE"/><path d="M619 325c.75 1.563.75 1.563 1 4-1.36 3.229-2.766 6.383-6 8 .449-1.815.91-3.627 1.375-5.438l.773-3.058C617 326 617 326 619 325z" fill="#C16159"/><path d="M851 290c1.013 2.656 1.077 3.784.11 6.508-.45.863-.898 1.727-1.36 2.617l-1.328 2.633C847 304 847 304 844 306c1.646-5.685 4.29-10.767 7-16z" fill="#D7CBC0"/><path d="M738 269c-1.408.87-2.826 1.72-4.25 2.563l-2.39 1.44c-2.668 1.127-3.705 1.014-6.36-.003 2.273-2.71 3.596-3.893 7.063-4.813C735 268 735 268 738 269z" fill="#D5A6A2"/><path d="M519 215c-1.285 2.867-2.571 4.976-5 7h-2c.25-2.875.25-2.875 1-6 3.22-2.39 3.22-2.39 6-1z" fill="#C43A36"/><path d="M673 181l3 1-1 9-3-1 1-9z" fill="#C18780"/><path d="M834 540h2c-.48 4.314-1.746 6.166-5 9l-2-1 3-6h2v-2z" fill="#BF615C"/><path d="M765 421c-5.041 2.815-9.226 4.519-15 5 2.133-2.366 3.96-3.63 6.938-4.75l2.027-.797c2.351-.523 3.771-.203 6.035.547z" fill="#D4B7B1"/><path d="M514 364h2c.533 1.58 1.051 3.164 1.563 4.75l.878 2.672c.576 2.656.451 4.048-.441 6.578v-3h-2c-1.193-3.877-2-6.916-2-11z" fill="#D69F98"/><path d="M530 344c2 2 2 2 2.125 5.625L532 353l2 1h-2v6h-1c-.853-3.674-1.108-7.045-1.063-10.813l.028-2.957L530 344z" fill="#CD5549"/><path d="M776.48 343.926l2.707.387 2.731.363L784 345c-3.314 2.21-4.345 2.225-8.188 2.125l-2.73-.055L771 347c1.79-2.314 2.489-2.985 5.48-3.074z" fill="#C94F47"/><path d="M744 262c-1 3-1 3-2.672 4.168-6.9 3.385-6.9 3.385-11.328 2.832 3.75-2 3.75-2 6-2v-2c2.905-2.042 4.401-3 8-3z" fill="#CF4D48"/><path d="M514 196l1 3-7 7-3-1 9-9z" fill="#D25D5D"/><path d="M643.125 133.438l2.758.308L648 134v1c-5.57 1.592-10.211 2.207-16 2l4-1v-2c2.623-1.312 4.23-.896 7.125-.563z" fill="#B95E58"/><path d="M573 560c3.542 1.366 6.926 2.91 10.313 4.625l2.675 1.352L588 567v1h-5l-1-2c-1.85-1.05-1.85-1.05-4-2-3.889-1.778-3.889-1.778-5-4z" fill="#E4C8BD"/><path d="M522 548c3.313.563 3.313.563 7 2 1.537 2.295 2.158 4.327 3 7l-3-1v-2l-2.375-.75c-2.948-1.404-3.527-2.257-4.625-5.25z" fill="#D9A0A0"/><path d="M849 351c.75 1.563.75 1.563 1 4-1.125 2.5-2.532 4.668-4 7l-1 2h-2c2.89-9.595 2.89-9.595 6-13z" fill="#C6A7A6"/><path d="M573 336h2l-.438 3c-.571 3.994-1.07 7.995-1.562 12h-1c-.027-2.312-.046-4.625-.063-6.938l-.035-3.902C572 337 572 337 573 336z" fill="#D0433A"/><path d="M794 344c-3.575 3.575-8.029 3.97-12.938 4.125L778 348c4.826-3.218 10.198-4.363 16-4z" fill="#E2C9B8"/><path d="M710 239h1c.286 8.571.286 8.571-2 12h-1c-.286-8.571-.286-8.571 2-12z" fill="#D1B3B3"/><path d="M494 218l1 4-6 5-2-1 7-8z" fill="#D45450"/><path d="M543 192c-.313 1.875-.313 1.875-1 4-3 2-3 2-6 2 2.154-6 2.154-6 7-6z" fill="#C9352F"/><path d="M661 157h2c.286 8.571.286 8.571-2 12h-1c-.082-4.161.018-7.947 1-12z" fill="#D3ADAC"/><path d="M777 560l2 1c-.938 1.938-.938 1.938-3 4-2.986.662-5.949.872-9 1 3.125-2.524 6.313-4.397 10-6z" fill="#D4C6C4"/><path d="M821 554v2c-.543.182-1.085.364-1.645.55l-2.168.763-2.144.738c-2.188 1.016-3.452 2.157-5.043 3.949l-2-1c3.618-4.035 7.42-7 13-7z" fill="#D14A3F"/><path d="M801.25 548.313L803 549c-3.2 2.743-6.005 4.63-10 6 1.594-3.852 3.67-7.324 8.25-6.688z" fill="#CC5953"/><path d="M643 434h1c-.549 4.571-1.417 8.674-3 13-2-3-2-3-1.75-5 .75-2 .75-2 2.75-5l1-3z" fill="#BF594F"/><path d="M910 389h1c.081 2.104.14 4.208.188 6.313l.105 3.55C911 402 911 402 908 405l2-16z" fill="#D0362C"/><path d="M810 313l3 1c-1.563 2.438-1.563 2.438-4 5-3.75.813-3.75.813-7 1l1-2 3-.938 3-1.062 1-3z" fill="#D9958E"/><path d="M583 280c1.251 3.547.723 5.723-.438 9.25l-.87 2.703L581 294l-2-1c.475-1.98.955-3.96 1.438-5.938l.808-3.34C582 281 582 281 583 280z" fill="#D27F7A"/><path d="M685 266l2 1-1 2h-3v2l-9 2c2.509-2.509 4.013-3.722 7.063-5.25l2.097-1.078L685 266z" fill="#D1A8A3"/><path d="M479 263h2l-1 9h-3l-1 3c.875-4.75.875-4.75 2-7a176.3 176.3 0 001-5z" fill="#D83B2F"/><path d="M745 260h3c-.063 1.75-.063 1.75-1 4-2.251 1.725-4.401 2.77-7 4l-2-1 2.375-1.25c2.684-1.79 3.506-2.8 4.625-5.75z" fill="#CC9087"/><path d="M641 230l2 1-1 2h-3v5h-4c1.27-3.914 2.512-5.79 6-8z" fill="#D23B32"/><path d="M722 199l3 1 1 13c-2-4-2-4-2-8h-2v-6z" fill="#C5302A"/><path d="M586 167l-1 3-2.75.438c-2.465.426-4.838.913-7.25 1.562 6.17-6.61 6.17-6.61 11-5z" fill="#D43B35"/><path d="M786 158l11 5v1l-9-1-2-5z" fill="#CE9888"/><path d="M605 158l2 1v2l-14 1c3.334-1.667 5.452-2.363 9-3l3-1z" fill="#CD2F2A"/><path d="M575 155l2 3c-2.313 1.563-2.313 1.563-5 3l-3-1c2.625-3.875 2.625-3.875 6-5z" fill="#CC3D3A"/><path d="M714 134l9 1v2l3 1c-1.626-.087-3.25-.195-4.875-.313l-2.742-.175C716 137 716 137 714 134z" fill="#D9A69B"/><path d="M716 569c1.172.783 2.338 1.577 3.5 2.375l1.969 1.336L723 574v2l-6-1-1-6z" fill="#C4473D"/><path d="M608 470l3 1v4l-11-1v-1h8v-3z" fill="#A28F7B"/><path d="M736 455c-1.415.961-2.832 1.919-4.25 2.875l-2.39 1.617A56.232 56.232 0 01723 463c.438-2.25.438-2.25 2-5 7.667-4.667 7.667-4.667 11-3z" fill="#CDA593"/><path d="M625 445c1.43 2.354 2.087 3.48 1.625 6.25L626 453l-7-1 1-2 3 1 2-6z" fill="#CAB7A8"/><path d="M607 438l5 2v2h2v2h3v2c-4.398-.507-6.87-3.083-10-6v-2z" fill="#C58075"/><path d="M485 346l2 1-5 11h-1c.087-1.439.196-2.876.313-4.313l.175-2.425c.594-2.625 1.47-3.57 3.512-5.262z" fill="#CA3E35"/><path d="M898 287c1.625 2.437 2.657 4.373 3.688 7.063l.824 2.097C903 298 903 298 902 300c-2-1-2-1-3.125-3.688-.864-3.27-1.035-5.95-.875-9.312z" fill="#CB5B54"/><path d="M835 234c2.246 1.774 2.95 2.584 3.293 5.48l-.106 2.708-.082 2.73L838 247c-2.59-2.59-2.374-4.027-2.625-7.625l-.227-3.04L835 234z" fill="#BF8782"/><path d="M740 588c1.875.188 1.875.188 4 1 1.313 2.375 1.313 2.375 2 5l-1 3-3-1 1-5h-2l-1-3z" fill="#CF9382"/><path d="M589 568c1.418.454 2.834.914 4.25 1.375l2.39.773c2.226.804 4.27 1.75 6.36 2.852-2.9 1.45-4.56.454-7.625-.438l-3.04-.87L589 571v-3z" fill="#D6B0A2"/><path d="M831 544c-.349 3.255-1.021 4.019-3.563 6.25L825 552c.376-2.782.673-4.588 2.438-6.813C829 544 829 544 831 544z" fill="#C74B43"/><path d="M889 473l1 2c-.996 1.945-.996 1.945-2.438 4.125l-1.433 2.195L885 483c-1.112-3.336-1.098-4.706 0-8 2.063-1.313 2.063-1.313 4-2z" fill="#D5A098"/><path d="M740 448l4 1a983.483 983.483 0 01-4.875 3l-2.742 1.688C734 455 734 455 732 455v-2h3v-3h5v-2z" fill="#C16159"/><path d="M559 448c5.089 2.164 8.641 3.693 11 9a43.325 43.325 0 01-11-7v-2z" fill="#DCC4C4"/><path d="M909 414h1c-.595 9.595-.595 9.595-4 13v-7h2l1-6z" fill="#DCB7B0"/><path d="M822 412h2c-.349 3.255-1.021 4.019-3.563 6.25L818 420l-2-1c1.313-2.5 1.313-2.5 3-5h3v-2z" fill="#CA8D86"/><path d="M489 380c1.125 1.625 1.125 1.625 2 4-.875 3.25-.875 3.25-2 6l-2-1c-.201-3.625.142-5.865 2-9z" fill="#C08C7A"/><path d="M588 356h2v11c-2.599-2.599-2.632-4.398-3-8l1-3z" fill="#D2806B"/><path d="M741.563 354.938L744 355c-2.414 1.61-4.34 2.655-7 3.688l-2.063.824C733 360 733 360 730 359l1-2c2.327-.374 4.661-.708 7-1 1-1 1-1 3.563-1.063z" fill="#D2A292"/><path d="M768 347h10c-3.006 3.006-5.824 2.596-10 3v-3z" fill="#D7A6A2"/><path d="M795 304h1v7l-4 2 1-7h2v-2z" fill="#A15043"/><path d="M587 271l2 1c.25 2.313.25 2.313 0 5-2 1.813-2 1.813-4 3-1-3-1-3 .438-6.188L587 271z" fill="#9D625F"/><path d="M740 247c-3.653 2.634-6.485 4.469-11 5v-2h3v-2c3.067-1.862 4.597-2.215 8-1z" fill="#C04740"/><path d="M498 240h2c-1.575 4.462-3.594 9.797-8 12 1.566-4.308 3.683-8.062 6-12z" fill="#E9CFC2"/><path d="M659 214c-.349 3.255-1.021 4.019-3.563 6.25L653 222c.376-2.782.673-4.588 2.438-6.813C657 214 657 214 659 214z" fill="#BF453D"/><path d="M558 188a431.773 431.773 0 01-4.375 2.563l-2.46 1.44L549 193l-2-1c.688-1.938.688-1.938 2-4 3.398-1.162 5.61-.945 9 0z" fill="#D3A8A7"/><path d="M793 576a350.591 350.591 0 01-3.875 2.563l-2.18 1.44L785 581l-2-1 1-4c5.625-1.125 5.625-1.125 9 0z" fill="#CAA094"/><path d="M499 484h2c1.374 3.818.68 7.073 0 11l-2-1v-10z" fill="#9D4339"/><path d="M561 428c4.142 1.38 5.322 3.598 8 7l-1 2a105.022 105.022 0 01-5-4v-2h-3l1-3z" fill="#D1A092"/><path d="M817 418c-1.408 2.815-3.226 3.613-6 5l-3-1v-2c3.135-1.858 5.375-2.201 9-2z" fill="#C9534E"/><path d="M721.375 342.313L723 343l-1.938.875c-2.214.953-2.214.953-3.062 3.125h-5v-2c5.415-3.077 5.415-3.077 8.375-2.688z" fill="#D5ADA7"/><path d="M489 333c1.468 2.937.767 4.868 0 8-1.563 1.875-1.563 1.875-3 3l-2-1 5-10z" fill="#D4B8B6"/><path d="M785 266c2.296 3.445 2.54 5.938 3 10l-3 1v-11z" fill="#CA4A3F"/><path d="M489 250h3c-.432 4.752-1.328 6.92-5 10v-4h2v-6z" fill="#CA807E"/><path d="M792 234h2l3 9-3-1c-.688-2.063-.688-2.063-1-4h-2l1-4z" fill="#BF453C"/><path d="M480 234c1.125 3.75 1.125 3.75 0 6l-3 1c-1.667 1.5-1.667 1.5-3 3 1.37-3.995 3.257-6.8 6-10z" fill="#DEADAA"/><path d="M555 184h5c-2 3-2 3-4.164 3.512l-2.461.175-2.477.2L549 188l1-2h5v-2z" fill="#C45551"/><path d="M538 176v3h-3v2l-2.375.938c-2.548.99-2.548.99-4.625 2.062 1.515-4.242 5.298-8 10-8z" fill="#E1AEAB"/><path d="M678 168c1.537 2.41 2.098 3.5 1.54 6.36-.303.788-.604 1.577-.915 2.39l-.898 2.422L677 181h-1c.14-1.792.288-3.584.438-5.375.08-.998.162-1.995.246-3.023C677 170 677 170 678 168z" fill="#AF8775"/><path d="M706 164c3.62 2.641 5.987 4.974 8 9v2h-2v-2h-2l-.875-2.25A81.918 81.918 0 00706 164z" fill="#CDA384"/><path d="M548 568c3.793 1.002 6.715 1.81 10 4v2c-4.43-1.208-6.981-2.517-10-6z" fill="#C3A2A5"/><path d="M490 466l2 4h2v7c-2-1-2-1-3.125-3.813C490 470 490 470 490 466z" fill="#D14234"/><path d="M600.98 469.246c2.025.52 4.025 1.132 6.02 1.754v1h-7l-1 2-3-2c1.405-2.282 2.26-3.092 4.98-2.754z" fill="#78463F"/><path d="M577 462h4l1 2c2.527.656 2.527.656 5 1v3c-3.995-.615-6.775-2.655-10-5v-1z" fill="#D3AC9E"/><path d="M793 432c-8.262 4.592-8.262 4.592-13 4 3.948-3.34 7.882-5.706 13-4z" fill="#E6CFBC"/><path d="M446 310l2 2c-.303 3.842-1.525 6.094-4 9 .875-7.625.875-7.625 2-11z" fill="#CC5752"/><path d="M469 297c.955 2.17 1.144 3.563.398 5.824-.757 1.744-1.574 3.462-2.398 5.176-.955-2.17-1.144-3.563-.398-5.824.757-1.744 1.574-3.462 2.398-5.176z" fill="#E0D8D3"/><path d="M501 232l3 1-1.438 1.75c-1.51 2.176-2.102 3.676-2.562 6.25l-2-1v-4h2l1-4z" fill="#B03433"/><path d="M580 150l2 1c-2.121 2.333-4.016 3.915-7 5-2.129-.453-2.129-.453-4-1a431.773 431.773 0 014.375-2.563l2.46-1.44L580 150z" fill="#D0B3AD"/><path d="M819 532c0 3 0 3-1.75 5.25-2.25 1.75-2.25 1.75-4.5 1.5L811 538c5.75-4.875 5.75-4.875 8-6z" fill="#CFA59B"/><path d="M501 488c1.67 3.338 2.874 6.462 4 10l-4-1v-9z" fill="#B9554A"/><path d="M574 456l3 1 1 5c-1.875-.313-1.875-.313-4-1l-2-3h2v-2z" fill="#B7746D"/><path d="M486 442l3 1-1 8-2-1v-8z" fill="#935F57"/><path d="M450 443h3l1 10c-2.925-3.9-3.475-5.383-4-10z" fill="#BF9B96"/><path d="M726 436l2 1c-1.125 1.938-1.125 1.938-3 4-3.188.75-3.188.75-6 1 4.75-4.875 4.75-4.875 7-6z" fill="#D08C88"/><path d="M648 415h1l-1 8h-2l-1-5h2l1-3z" fill="#A5534D"/><path d="M788 412v3l-10 1c2.979-2.979 5.803-4 10-4z" fill="#DBB5AF"/><path d="M894 396l1 4h3c-.624 3.619-1.17 4.17-4 7v-11z" fill="#D73E31"/><path d="M470 388h1c.054 1.625.093 3.25.125 4.875l.07 2.742C471 398 471 398 469 400c-1.099-3.297-.871-4.405-.063-7.688l.59-2.449L470 388z" fill="#9B584E"/><path d="M626 348c1.214 3.642.667 4.332-.938 7.688l-1.152 2.449L623 360c-1.465-4.425-.02-6.883 2-11l1-1z" fill="#C75044"/><path d="M487 341l1 4-3 1-1 3h-2l2-5h2l1-3z" fill="#C66660"/><path d="M455 332l3 1c-.61 3.558-1.578 6.683-3 10h-1l1-11z" fill="#D62D27"/><path d="M649 313h4v2l-7 4c.573-2.867.861-3.861 3-6z" fill="#C97F79"/><path d="M792 313h2c-1.394 4.435-3.606 6.874-7 10 1.333-3.588 2.83-6.836 5-10z" fill="#DFD8DD"/><path d="M541 281l2 1-2 9-2-1v-6h2v-3z" fill="#934742"/><path d="M854 277h2c-.28 1.814-.575 3.626-.875 5.438l-.492 3.058L854 288l-2 1c.14-1.813.287-3.625.438-5.438.08-1.009.162-2.018.246-3.058C853 278 853 278 854 277z" fill="#C8A99F"/><path d="M890 268c2 2 2 2 2 5h2l1 5-4-2v-5h-2l1-3z" fill="#CB5F55"/><path d="M583 586l10 1 1 3c-7.625-1.75-7.625-1.75-11-4z" fill="#BD6D69"/><path d="M519 544h4v2h2l2 4c-3.255-.349-4.019-1.021-6.25-3.563L519 544z" fill="#C74E43"/><path d="M528 403c2.179 3.268 3.498 6.38 5 10l-2 1-.875-2.438c-.858-2.695-.858-2.695-3.125-3.562l1-5z" fill="#B85F59"/><path d="M847.563 389.938L850 390a317.62 317.62 0 01-5 6h-1a99.984 99.984 0 010-5c1-1 1-1 3.563-1.063z" fill="#D8A39C"/><path d="M670 380l1 2a158.814 158.814 0 01-5 6h-2c1.443-3.366 3.333-5.51 6-8z" fill="#D36256"/><path d="M495 324c0 3.38-.875 5.835-2 9h-3c1.09-3.775 1.908-6.47 5-9z" fill="#E2B6B2"/><path d="M842 306l1 4-3 1v2l-3 1v-4l1.938-.875c2.214-.953 2.214-.953 3.062-3.125z" fill="#A05F5E"/><path d="M669 294l4 1-5 6-2-2 1-3h2v-2z" fill="#BD554F"/><path d="M543 196v2c-1.969 1.508-1.969 1.508-4.5 3.125l-2.531 1.633L534 204c1.74-3.835 4.363-8 9-8z" fill="#DCBCB8"/><path d="M535 198l3 1-1.438 1.313c-1.799 1.71-1.799 1.71-2.562 4.687h-2l-1-4 4-1v-2z" fill="#BD5354"/><path d="M770 567c-6.4 3.077-6.4 3.077-9.438 2.688L759 569c7.429-3.571 7.429-3.571 11-2z" fill="#C3928E"/><path d="M808 562v4h-7c1.467-2.934 3.74-4 7-4z" fill="#C84C43"/><path d="M531 531c3.736 1.245 4.188 2.634 6 6h-5l-1-6z" fill="#C15F4E"/><path d="M684 487l2 4-1 1-.438 3.5L684 499l-2 1 2-13z" fill="#D25F55"/><path d="M877 451c1.097 3.29.8 4.713 0 8h-2l-1 4c-.348-4.877.583-7.77 3-12z" fill="#CD978E"/><path d="M475 370c.625 1.875.625 1.875 1 4l-2 2a88.982 88.982 0 00-2 4c.114-1.48.241-2.96.375-4.438.07-.823.14-1.647.21-2.496L473 371l2-1z" fill="#CCA2A1"/><path d="M698 354v3h-3v2l-5 1 1-2h2v-2c3-2 3-2 5-2z" fill="#D9B1A7"/><path d="M802 338v3l-7 2c1-3 1-3 2.938-4.188C800 338 800 338 802 338z" fill="#C34740"/><path d="M574 312v7l-2 1-1-7c2-1 2-1 3-1z" fill="#95443E"/><path d="M775 308l3 1-6 7-1-3c1.938-2.688 1.938-2.688 4-5z" fill="#CF524C"/><path d="M661 280v3c-2.565 2.565-4.477 2.54-8 3 2.49-2.667 4.634-4.557 8-6z" fill="#C9AEAF"/><path d="M672 274v3l-1.938.375L668 278l-1 2-4-1a466.06 466.06 0 013.375-2.5l1.898-1.406C670 274 670 274 672 274z" fill="#C7A292"/><path d="M699 277l1 3-4 1v2h-3c1.245-3.736 2.634-4.188 6-6z" fill="#D14136"/><path d="M712 274h4v2c-2.375 1.688-2.375 1.688-5 3l-2-1c1.25-2 1.25-2 3-4z" fill="#C5554E"/><path d="M729 271c-2.55 2.354-3.71 2.983-7.25 3.188L719 274c2.715-2.715 6.321-4.84 10-3z" fill="#CB5E5A"/><path d="M738 247c0 3 0 3-1.875 5.188C734 254 734 254 732 254c1.393-3.367 2.979-4.986 6-7z" fill="#D34033"/><path d="M744 161c4.542-.378 5.014.01 9 3l-10-1 1-2z" fill="#AD8485"/><path d="M570 156l2 1-7 7-2-1v-2a132.038 132.038 0 015-3l2-2z" fill="#CE534F"/><path d="M696 155c2.884 1.293 4.872 2.66 7 5l-2 1v-2h-5v-4z" fill="#BA5042"/><path d="M666 520l4 4-1 3-3-1v-6z" fill="#DDA78E"/><path d="M567 453h4l1 3 2-1v3h-4c-1.75-2.5-1.75-2.5-3-5z" fill="#BD5F56"/><path d="M661 434c1 3 1 3 0 6h-2l-1 3c.75-6.75.75-6.75 3-9z" fill="#C89F97"/><path d="M819 392l1 3-1.938.313L816 396l-1 3h-3v-2c4.385-3 4.385-3 7-3v-2z" fill="#D3A29F"/><path d="M756 327l-2 4h-3v2l-2-1c4.75-5 4.75-5 7-5z" fill="#D89688"/><path d="M816 309l2 1-3 5-3-1v-2c2-1.625 2-1.625 4-3z" fill="#C96A60"/><path d="M836 281h2c-.75 5.75-.75 5.75-3 8-.042-2.333-.04-4.667 0-7l1-1z" fill="#CC3E36"/><path d="M837 275h2l-2 6h-3l3-6z" fill="#A05951"/><path d="M707 252h1v8l-2 1-2-2 3-7z" fill="#CFA096"/><path d="M625 224l1 4c-4.75 2.875-4.75 2.875-7 4 1.443-3.366 3.333-5.51 6-8z" fill="#E1C9C7"/><path d="M569 180c-6.75 4-6.75 4-9 4v-3c5.625-2.125 5.625-2.125 9-1z" fill="#C89984"/><path d="M643 135h3l1 6-5-5 1-1z" fill="#BB3526"/></svg>